<?xml version="1.0" encoding="UTF-8" standalone="no"?>
<!-- Created with Inkscape (http://www.inkscape.org/) -->

<svg
   width="1280"
   height="2048"
   viewBox="0 0 338.66666 541.86666"
   version="1.1"
   id="svg1"
   xml:space="preserve"
   sodipodi:docname="abysses_div1bg.svg"
   inkscape:version="1.4.3 (0d15f75, 2025-12-25)"
   inkscape:export-filename="..\02_ReadyForRender\abysses_div2bg.png"
   inkscape:export-xdpi="96"
   inkscape:export-ydpi="96"
   xmlns:inkscape="http://www.inkscape.org/namespaces/inkscape"
   xmlns:sodipodi="http://sodipodi.sourceforge.net/DTD/sodipodi-0.dtd"
   xmlns:xlink="http://www.w3.org/1999/xlink"
   xmlns="http://www.w3.org/2000/svg"
   xmlns:svg="http://www.w3.org/2000/svg"><sodipodi:namedview
     id="namedview1"
     pagecolor="#000000"
     bordercolor="#000000"
     borderopacity="0.25"
     inkscape:showpageshadow="2"
     inkscape:pageopacity="0.0"
     inkscape:pagecheckerboard="false"
     inkscape:deskcolor="#1f1f1f"
     inkscape:document-units="px"
     showgrid="false"
     inkscape:zoom="0.36707498"
     inkscape:cx="651.09314"
     inkscape:cy="1126.4729"
     inkscape:window-width="2560"
     inkscape:window-height="1369"
     inkscape:window-x="-8"
     inkscape:window-y="-8"
     inkscape:window-maximized="1"
     inkscape:current-layer="layer4"><inkscape:grid
       id="grid1"
       units="mm"
       originx="0"
       originy="0"
       spacingx="0.99999998"
       spacingy="0.99999999"
       empcolor="#0099e5"
       empopacity="0.30196078"
       color="#0099e5"
       opacity="0.14901961"
       empspacing="8"
       enabled="true"
       visible="false" /></sodipodi:namedview><defs
     id="defs1"><marker
       style="overflow:visible"
       id="ColoredSquare"
       refX="0"
       refY="0"
       orient="auto"
       inkscape:stockid="Colored square"
       markerWidth="1"
       markerHeight="1"
       viewBox="0 0 1 1"
       inkscape:isstock="true"
       inkscape:collect="always"
       preserveAspectRatio="xMidYMid"><path
         transform="scale(0.5)"
         style="fill:context-fill;fill-rule:evenodd;stroke:context-stroke;stroke-width:2"
         d="M -5,-5 V 5 H 5 V -5 Z"
         id="path21" /></marker><linearGradient
       id="linearGradient943"
       inkscape:collect="always"><stop
         style="stop-color:#ffffff;stop-opacity:1;"
         offset="0"
         id="stop940" /><stop
         style="stop-color:#5a82de;stop-opacity:0.34999999;"
         offset="0.14259739"
         id="stop941" /><stop
         style="stop-color:#2450b5;stop-opacity:0.25;"
         offset="0.63343102"
         id="stop942" /><stop
         style="stop-color:#000000;stop-opacity:0;"
         offset="1"
         id="stop943" /></linearGradient><linearGradient
       id="linearGradient939"
       inkscape:collect="always"><stop
         style="stop-color:#ffffff;stop-opacity:1;"
         offset="0"
         id="stop936" /><stop
         style="stop-color:#5a82de;stop-opacity:0.34999999;"
         offset="0.14259739"
         id="stop937" /><stop
         style="stop-color:#2450b5;stop-opacity:0.25;"
         offset="0.63343102"
         id="stop938" /><stop
         style="stop-color:#000000;stop-opacity:0;"
         offset="1"
         id="stop939" /></linearGradient><linearGradient
       id="linearGradient18"
       inkscape:collect="always"><stop
         style="stop-color:#ffffff;stop-opacity:1;"
         offset="0"
         id="stop15" /><stop
         style="stop-color:#5a82de;stop-opacity:0.34999999;"
         offset="0.14259739"
         id="stop16" /><stop
         style="stop-color:#2450b5;stop-opacity:0.25;"
         offset="0.63343102"
         id="stop17" /><stop
         style="stop-color:#000000;stop-opacity:0;"
         offset="1"
         id="stop18" /></linearGradient><radialGradient
       inkscape:collect="always"
       xlink:href="#linearGradient18"
       id="radialGradient12"
       cx="193.60594"
       cy="167.50558"
       fx="193.60594"
       fy="167.50558"
       r="169.33333"
       gradientTransform="matrix(3.2598429,1.8129901e-6,-5.6228956e-8,0.09448819,-615.12495,272.17235)"
       gradientUnits="userSpaceOnUse" /><radialGradient
       inkscape:collect="always"
       xlink:href="#linearGradient18"
       id="radialGradient12-1"
       cx="193.60593"
       cy="173.04353"
       fx="193.60593"
       fy="173.04353"
       r="169.33333"
       gradientTransform="matrix(3.2598429,1.8129901e-6,-5.6228956e-8,0.09448819,-687.12464,383.64908)"
       gradientUnits="userSpaceOnUse" /><marker
       markerWidth="130.94486955"
       markerHeight="2066.06298828"
       refX="65"
       refY="0"
       orient="auto"
       id="marker932"
       viewBox="0 0 130.94487039 2066.06300159"
       preserveAspectRatio="xMidYMid"><use
         x="0"
         y="0"
         inkscape:tiled-clone-of="#rect10-2"
         xlink:href="#rect10-2"
         fill="#9a0000"
         stroke="#9a0000"
         id="use913"
         transform="matrix(3.7795276,0,0,3.7795276,1577.2835,519.01477)" /></marker><radialGradient
       inkscape:collect="always"
       xlink:href="#linearGradient943"
       id="radialGradient12-1-2"
       cx="193.60593"
       cy="173.04353"
       fx="193.60593"
       fy="173.04353"
       r="169.33333"
       gradientTransform="matrix(12.320666,6.8522462e-6,-2.1251889e-7,0.35712072,-2385.354,-122.27123)"
       gradientUnits="userSpaceOnUse" /><marker
       markerWidth="120.94487762"
       markerHeight="1753.69885254"
       refX="60"
       refY="0"
       orient="auto"
       id="marker936"
       viewBox="0 0 120.94487762 1753.69885254"
       preserveAspectRatio="xMidYMid"><rect
         style="display:inline;opacity:0.661485;mix-blend-mode:screen;fill:url(#radialGradient12-1-2);stroke:none;stroke-width:9.99999;stroke-linejoin:round"
         id="rect10-2-1"
         width="1753.6989"
         height="120.94488"
         x="0"
         y="-120.94488"
         transform="rotate(90)"
         inkscape:tile-cx="-136"
         inkscape:tile-cy="-120"
         inkscape:tile-w="32"
         inkscape:tile-h="544"
         inkscape:tile-x0="-152"
         inkscape:tile-y0="-392"
         inkscape:transform-center-x="-0.0045153173"
         inkscape:transform-center-y="230.00072" /></marker><radialGradient
       inkscape:collect="always"
       xlink:href="#linearGradient939"
       id="radialGradient12-1-27"
       cx="193.60593"
       cy="173.04353"
       fx="193.60593"
       fy="173.04353"
       r="169.33333"
       gradientTransform="matrix(12.320666,6.8522462e-6,-2.1251889e-7,0.35712072,-2385.354,-122.27122)"
       gradientUnits="userSpaceOnUse" /><marker
       markerWidth="120.94487762"
       markerHeight="1753.69885254"
       refX="60.472438"
       refY="876.84943"
       orient="auto"
       id="marker943"
       viewBox="0 0 120.94487762 1753.69885254"
       preserveAspectRatio="xMidYMid"><rect
         style="display:inline;opacity:0.661485;mix-blend-mode:screen;fill:url(#radialGradient12-1-27);stroke:none;stroke-width:9.99999;stroke-linejoin:round"
         id="rect10-2-3"
         width="1753.6989"
         height="120.94488"
         x="0"
         y="-120.94488"
         transform="rotate(90)"
         inkscape:tile-cx="-136"
         inkscape:tile-cy="-120"
         inkscape:tile-w="32"
         inkscape:tile-h="544"
         inkscape:tile-x0="-152"
         inkscape:tile-y0="-392"
         inkscape:transform-center-x="-0.0045153173"
         inkscape:transform-center-y="230.00072"
         inkscape:label="Source rayonM" /></marker><linearGradient
       id="linearGradient2"
       inkscape:collect="always"><stop
         style="stop-color:#ffffff;stop-opacity:1;"
         offset="0"
         id="stop2" /><stop
         style="stop-color:#ffffff;stop-opacity:1;"
         offset="0.03333336"
         id="stop5" /><stop
         style="stop-color:#2485b5;stop-opacity:1;"
         offset="0.3666667"
         id="stop4" /><stop
         style="stop-color:#001f65;stop-opacity:0.75;"
         offset="0.68333334"
         id="stop21" /><stop
         style="stop-color:#000000;stop-opacity:0;"
         offset="1"
         id="stop3" /></linearGradient><linearGradient
       inkscape:collect="always"
       xlink:href="#linearGradient2"
       id="linearGradient1"
       x1="160"
       y1="-8"
       x2="160"
       y2="216"
       gradientUnits="userSpaceOnUse" /><filter
       inkscape:collect="always"
       style="color-interpolation-filters:sRGB"
       id="filter27"
       x="-0.0171384"
       y="-0.25360323"
       width="1.0342768"
       height="1.5072065"><feGaussianBlur
         inkscape:collect="always"
         stdDeviation="2.6284968"
         id="feGaussianBlur27" /></filter><filter
       inkscape:collect="always"
       style="color-interpolation-filters:sRGB"
       id="filter28"
       x="-0.015661785"
       y="-0.16225169"
       width="1.0313236"
       height="1.3245034"><feGaussianBlur
         inkscape:collect="always"
         stdDeviation="2.6284968"
         id="feGaussianBlur28" /></filter><filter
       inkscape:collect="always"
       style="color-interpolation-filters:sRGB"
       id="filter29"
       x="-0.017032126"
       y="-0.19556494"
       width="1.0340643"
       height="1.3911299"><feGaussianBlur
         inkscape:collect="always"
         stdDeviation="2.6284968"
         id="feGaussianBlur29" /></filter><filter
       inkscape:collect="always"
       style="color-interpolation-filters:sRGB"
       id="filter30"
       x="-0.016938545"
       y="-0.20915412"
       width="1.0338771"
       height="1.4183082"><feGaussianBlur
         inkscape:collect="always"
         stdDeviation="2.6284968"
         id="feGaussianBlur30" /></filter><filter
       inkscape:collect="always"
       style="color-interpolation-filters:sRGB"
       id="filter31"
       x="-0.016117862"
       y="-0.20137514"
       width="1.0322357"
       height="1.4027503"><feGaussianBlur
         inkscape:collect="always"
         stdDeviation="2.6284968"
         id="feGaussianBlur31" /></filter><filter
       inkscape:collect="always"
       style="color-interpolation-filters:sRGB"
       id="filter32"
       x="-0.015983179"
       y="-0.26866651"
       width="1.0319664"
       height="1.537333"><feGaussianBlur
         inkscape:collect="always"
         stdDeviation="2.6284968"
         id="feGaussianBlur32" /></filter><filter
       inkscape:collect="always"
       style="color-interpolation-filters:sRGB"
       id="filter33"
       x="-0.016922801"
       y="-0.18480838"
       width="1.0338456"
       height="1.3696168"><feGaussianBlur
         inkscape:collect="always"
         stdDeviation="2.6284968"
         id="feGaussianBlur33" /></filter><filter
       inkscape:collect="always"
       style="color-interpolation-filters:sRGB"
       id="filter34"
       x="-0.017073047"
       y="-0.39262914"
       width="1.0341461"
       height="1.7852583"><feGaussianBlur
         inkscape:collect="always"
         stdDeviation="2.6284968"
         id="feGaussianBlur34" /></filter><filter
       inkscape:collect="always"
       style="color-interpolation-filters:sRGB"
       id="filter35"
       x="-0.018123874"
       y="-0.25226365"
       width="1.0362477"
       height="1.5045273"><feGaussianBlur
         inkscape:collect="always"
         stdDeviation="2.6284968"
         id="feGaussianBlur35" /></filter><filter
       inkscape:collect="always"
       style="color-interpolation-filters:sRGB"
       id="filter36"
       x="-0.017455417"
       y="-0.30169113"
       width="1.0349108"
       height="1.6033823"><feGaussianBlur
         inkscape:collect="always"
         stdDeviation="2.6284968"
         id="feGaussianBlur36" /></filter></defs><g
     inkscape:groupmode="layer"
     id="layer4"
     inkscape:label="Lumière surface"
     style="display:inline"><rect
       style="display:inline;fill:url(#linearGradient1);fill-opacity:1;stroke-width:2.64583;stroke-linejoin:round"
       id="rect2"
       width="338.66666"
       height="328.81363"
       x="2.3779296e-06"
       y="0"
       inkscape:label="Surface light" /></g><g
     inkscape:groupmode="layer"
     id="layer5"
     inkscape:label="Texture surface"
     style="display:inline"><path
       style="mix-blend-mode:normal;fill:#4d9ac2;fill-opacity:1;stroke:none;stroke-width:1.32292;stroke-linecap:round;stroke-linejoin:round;stroke-dasharray:none;stroke-opacity:1;filter:url(#filter27)"
       id="path13"
       d="m -12.467795,27.484929 c 3.9695597,-1.979482 7.6422843,-4.500342 11.4230887,-6.809783 4.3138387,-2.576461 8.5615833,-5.271122 13.0023223,-7.626453 1.77289,-0.809546 3.59512,-1.919382 5.595591,-2.057275 1.081152,-0.07452 1.655523,0.122139 2.70814,0.340572 3.541653,1.142088 6.77582,3.044761 10.007086,4.855123 3.336735,1.99022 6.819212,3.715985 10.441623,5.118442 2.308005,0.771533 4.781055,1.380965 7.225151,0.946826 0.579406,-0.102918 1.141082,-0.28835 1.711622,-0.432525 4.247306,-1.50607 8.303958,-3.481375 12.5096,-5.094035 2.639677,-1.035466 5.389454,-1.564935 8.213045,-1.647013 3.924819,0.320779 7.399795,2.30788 10.640359,4.400422 2.559439,1.701257 4.884002,3.708374 7.260561,5.64669 2.005769,1.660896 3.864639,2.213539 6.390687,2.588231 2.964498,0.452948 5.834959,-0.15254 8.570439,-1.316434 0.71175,-0.302837 1.39551,-0.667658 2.09326,-1.001485 3.93657,-2.110105 7.56242,-4.724642 11.27391,-7.193051 2.0036,-1.326931 4.09547,-2.546603 6.31637,-3.477235 1.67189,-0.700578 2.48262,-0.911864 4.22712,-1.4633 3.89561,-1.036892 7.94026,-1.640923 11.97689,-1.69251 0.78455,-0.01003 1.56889,0.03308 2.35333,0.04962 4.74411,0.344099 9.23693,2.003813 13.63016,3.716302 2.55406,1.051924 5.1707,1.947856 7.88549,2.479963 1.47256,0.288628 2.1238,0.338849 3.59955,0.514631 2.14051,0.234245 4.29075,0.334565 6.42655,0.0026 1.44543,-0.22466 1.88537,-0.381571 3.2952,-0.756629 3.56228,-1.031229 6.8992,-2.712839 10.18011,-4.415366 2.12949,-1.145502 4.19443,-2.417453 6.34979,-3.5153877 1.36971,-0.6977257 1.7753,-0.8333414 3.20024,-1.4248731 2.27641,-0.7997907 4.64756,-1.4870401 7.08697,-1.3913954 1.64251,0.0644 2.33297,0.298448 3.93996,0.6597737 4.19564,1.3450344 7.88402,3.8258695 11.57566,6.1645315 2.21976,1.371356 4.40014,2.842242 6.75669,3.977204 1.57017,0.756227 1.92793,0.824606 3.5725,1.388831 4.02316,1.200862 8.24394,1.256493 12.40596,1.344221 2.46376,-0.04531 4.95543,-0.133956 7.38616,-0.582312 2.81976,-0.520114 5.52857,-1.451616 8.2346,-2.371349 3.39294,-1.111549 6.70526,-2.453594 10.14323,-3.427388 2.07549,-0.587881 2.17572,-0.57232 4.26026,-1.01125 3.44543,-0.572126 6.99143,-0.947057 10.47933,-0.514347 0.71644,0.08888 1.42253,0.247086 2.13381,0.37063 5.28878,1.356405 10.14074,3.974128 15.06456,6.270468 2.65289,1.238136 5.4143,2.253788 8.30273,2.773758 1.60207,0.288402 2.4752,0.333281 4.09715,0.482717 5.67401,0.04079 10.66728,-2.642398 15.47243,-5.355659 3.74127,-2.145904 6.99432,-5.009926 10.62541,-7.3145127 1.86608,-1.0160264 4.00224,-1.5767511 6.1341,-1.2069634 0.55737,0.09668 1.09431,0.287262 1.64145,0.430893 4.08736,1.4225461 7.00534,4.6298271 9.79238,7.7858951 0,0 0.32205,-3.823591 0.32205,-3.823591 v 0 c -2.87366,-3.1625437 -5.87338,-6.3630729 -10.01477,-7.8073009 -0.57099,-0.1527506 -1.1312,-0.3540424 -1.71301,-0.4582517 -2.20959,-0.3957582 -4.44069,0.1648161 -6.38252,1.210943 -3.6335,2.3402968 -6.84483,5.2884826 -10.59744,7.4607646 -4.71916,2.693365 -9.6588,5.324383 -15.2446,5.261132 -1.64367,-0.15495 -2.42911,-0.193252 -4.05104,-0.487312 -2.85541,-0.517691 -5.5908,-1.506108 -8.22108,-2.717144 -2.52679,-1.160019 -5.03621,-2.357483 -7.57115,-3.499701 -1.94281,-0.875405 -3.32243,-1.524783 -5.33908,-2.1896337 -0.73962,-0.2438337 -1.50125,-0.4148917 -2.25187,-0.6223367 -0.72409,-0.1266507 -1.44272,-0.2898347 -2.17226,-0.3799527 -3.52176,-0.4350427 -7.10739,-0.05321 -10.58592,0.5216057 -2.08233,0.4418677 -2.22404,0.4334017 -4.29332,1.0308074 -3.44157,0.993591 -6.75058,2.371409 -10.15188,3.486644 -2.00826,0.668501 -3.47216,1.197033 -5.50681,1.720814 -3.26391,0.840231 -6.61597,1.191565 -9.984,1.170301 -4.12322,-0.106769 -8.30426,-0.185583 -12.28737,-1.38193 -0.59418,-0.206935 -1.19745,-0.389415 -1.78254,-0.620807 -3.01325,-1.191687 -5.71202,-3.037983 -8.45953,-4.7225167 -3.73281,-2.3490838 -7.46814,-4.828389 -11.706,-6.1738687 -1.66717,-0.373656 -2.33138,-0.6026796 -4.03551,-0.67319 -2.48622,-0.1028695 -4.90185,0.5699421 -7.22586,1.3811689 -1.22934,0.5029655 -2.05929,0.8135308 -3.24385,1.4125689 -2.16033,1.0924934 -4.20227,2.4148198 -6.33908,3.5507022 -3.2527,1.6930734 -6.57138,3.3395674 -10.09795,4.3817164 -1.44626,0.391071 -1.75498,0.517273 -3.23882,0.747474 -2.10627,0.326766 -4.22462,0.232307 -6.33702,0.01367 -1.48767,-0.17269 -2.07507,-0.212925 -3.56014,-0.500889 -2.69444,-0.522471 -5.29209,-1.41029 -7.8291,-2.445876 -4.43398,-1.7193757 -8.98292,-3.3584998 -13.7633,-3.7113715 -0.79285,-0.01536 -1.58562,-0.0571 -2.37855,-0.04607 -4.06644,0.05657 -8.14365,0.6679264 -12.07414,1.6859271 -1.66002,0.5116497 -2.67544,0.7850044 -4.27681,1.4303734 -2.25232,0.907715 -4.35959,2.13872 -6.37738,3.479369 -3.69276,2.478289 -7.28616,5.12241 -11.21728,7.224768 -0.68642,0.326274 -1.35957,0.68207 -2.05925,0.978824 -2.73091,1.15824 -5.42442,1.715765 -8.376413,1.243523 -2.497087,-0.395636 -4.196279,-0.943192 -6.184403,-2.575204 -2.3769,-1.936673 -4.727945,-3.909099 -7.308725,-5.576967 -3.320754,-2.116253 -6.869594,-4.115359 -10.867861,-4.47638 -2.952676,0.06999 -5.587492,0.60941 -8.343963,1.710414 -4.17756,1.634153 -8.215284,3.614555 -12.463439,5.066766 -0.551056,0.138598 -1.093526,0.317446 -1.653167,0.415795 -2.382562,0.418704 -4.793594,-0.207498 -7.047883,-0.933357 C 37.23532,16.089462 33.795758,14.337147 30.463169,12.380842 27.194957,10.545597 23.930468,8.6002939 20.339612,7.4597505 19.250793,7.2394038 18.601737,7.0312208 17.48058,7.1056518 15.436121,7.2413778 13.57685,8.3933662 11.770403,9.2263526 7.316363,11.608446 3.0903862,14.382501 -1.2469641,16.966667 c -5.5819867,3.356262 -0.039876,0.01322 -5.2828493,3.205958 -1.674359,1.019611 -3.3516776,2.066473 -5.1145816,2.930525 -0.318174,0.155946 -0.649333,0.283867 -0.974,0.425802 z" /><path
       style="mix-blend-mode:normal;fill:#4d9ac2;fill-opacity:1;stroke:none;stroke-width:1.32292;stroke-linecap:round;stroke-linejoin:round;stroke-dasharray:none;stroke-opacity:1;filter:url(#filter28)"
       id="path14"
       d="m 360.15099,40.584931 c -2.62948,0.08076 -5.32167,-0.06018 -7.79606,-1.04517 -0.73332,-0.291913 -1.42491,-0.679313 -2.13738,-1.018969 -5.52828,-2.990461 -10.17365,-7.300645 -15.02153,-11.243795 -1.94369,-1.55265 -3.91491,-3.076092 -6.0134,-4.416381 -0.54938,-0.350887 -1.09487,-0.712338 -1.67592,-1.007822 -1.54758,-0.786977 -1.92974,-0.788714 -3.57992,-1.207681 -4.05458,-0.509885 -6.84946,0.890493 -10.26486,2.823108 -3.34721,2.06368 -6.68165,4.145526 -10.19188,5.922722 -3.03742,1.306755 -6.14989,2.434553 -9.38943,3.110184 -2.24602,0.358178 -4.51829,0.60147 -6.79262,0.381071 -1.67304,-0.162132 -2.81545,-0.440512 -4.45526,-0.776213 -4.6644,-1.024615 -8.76737,-3.526086 -12.95564,-5.702452 -3.95896,-2.078426 -8.04828,-3.8684 -12.37991,-4.995303 -2.33173,-0.580776 -4.74169,-0.602564 -7.12444,-0.776809 -1.8035,-0.121135 -3.59221,-0.146092 -5.37102,-0.485348 -3.17279,-0.578882 -5.85703,-2.36128 -8.57789,-3.978542 -2.96932,-1.61832 -5.97281,-3.196207 -9.09987,-4.492393 -0.84237,-0.349165 -4.78082,-1.8309937 -5.55203,-2.1227407 -3.2927,-1.1995811 -6.59724,-2.4295705 -10.01162,-3.2476932 -1.38935,-0.3329027 -1.85826,-0.3744927 -3.21295,-0.5746328 -0.70148,-0.046124 -1.5493,-0.1944494 -2.23978,0.096184 -1.77485,0.7470588 -2.72767,3.2662733 -3.49192,4.8574207 -1.38671,3.471681 -2.4665,7.053248 -3.94968,10.488204 -0.80826,1.606991 -1.64097,3.346321 -3.06486,4.519361 -0.84543,0.696484 -1.24365,0.752499 -2.27007,1.152863 -3.01957,0.723804 -6.26121,1.066336 -9.32073,0.324921 -0.85772,-0.207853 -1.6802,-0.540817 -2.5203,-0.811225 -5.41479,-2.272156 -10.4536,-5.31532 -15.69369,-7.947695 -1.75043,-0.829548 -3.53692,-1.59526 -5.37985,-2.197166 -0.42417,-0.138535 -1.80908,-0.547472 -2.31216,-0.607364 -0.36053,-0.04292 -0.72609,-0.01017 -1.08914,-0.01526 -1.92366,0.302297 -3.35351,1.559759 -4.82982,2.726035 -2.09814,1.657523 -1.16177,0.905121 -3.32992,2.692208 -2.86879,2.307368 -5.65332,4.79675 -8.93089,6.52616 -0.48029,0.25342 -0.98361,0.460523 -1.47542,0.690784 -1.21262,0.411029 -1.66897,0.668228 -2.96939,0.700618 -2.29586,0.05718 -4.36964,-1.033684 -6.3657,-2.025259 -1.09413,-0.543524 -2.16885,-1.12527 -3.25328,-1.687905 -5.81536,-3.057506 -11.38081,-6.562428 -17.16573,-9.673345 -1.21677,-0.634393 -1.98804,-1.051144 -3.19593,-1.630576 -0.69446,-0.333137 -1.44618,-0.729858 -2.23276,-0.816239 -1.03017,-0.11313 -1.28193,0.115951 -2.24216,0.475043 -0.40997,0.262036 -0.84278,0.491376 -1.229911,0.786109 -1.038707,0.790791 -1.876793,1.698905 -2.758257,2.658214 -1.642904,1.78799 -3.1944,3.658887 -4.756055,5.517203 -2.379501,2.928527 -5.236927,5.485263 -8.612828,7.215366 -2.167316,1.11072 -2.995231,1.256943 -5.307025,1.971755 -0.950003,0.152966 -1.8913,0.376519 -2.850007,0.458899 -4.298853,0.369395 -8.728578,-0.43508 -12.834432,-1.652349 -1.106366,-0.328006 -2.186308,-0.739319 -3.279463,-1.108979 -3.855752,-1.391821 -7.314533,-3.607458 -10.466393,-6.199374 -1.141097,-0.938376 -2.398776,-2.108552 -3.495238,-3.108039 -1.684277,-1.595148 -3.458454,-3.193049 -5.676744,-3.999197 -1.265251,-0.459803 -1.98873,-0.512877 -3.325937,-0.734359 -0.652312,-0.0027 -1.310584,-0.096 -1.956938,-0.008 -1.661011,0.226182 -4.125325,1.109442 -5.654868,1.624626 -2.044816,0.68874 -4.30871,1.513621 -6.374699,2.136472 -1.086131,0.327445 -2.186606,0.605275 -3.279909,0.907912 -2.002319,0.444501 -4.552345,1.087143 -6.608265,1.235119 -2.9322691,0.211052 -5.7999116,-0.05637 -8.7117327,-0.38718 -2.8324314,-0.321785 -7.3207381,-1.04344 -10.1035518,-1.472296 -6.1711695,-0.95497 -12.3442545,-1.992008 -18.5867925,-2.349403 -2.827207,-0.161862 -4.767976,-0.148257 -7.57021,-0.174164 -3.482248,0.06407 -6.957542,0.305985 -10.42279,0.643004 0,0 0.03942,3.816878 0.03942,3.816878 v 0 c 3.45017,-0.379786 6.909803,-0.688631 10.381591,-0.778741 2.857453,0.0011 4.655654,-0.03242 7.544917,0.115903 6.231271,0.319886 12.399442,1.317913 18.5589806,2.26013 2.9698926,0.472235 7.11592,1.161355 10.1248349,1.525276 2.7842561,0.33675 5.9727094,0.676255 8.8009965,0.499749 2.005974,-0.125188 4.700691,-0.803887 6.652086,-1.23777 1.09899,-0.301911 2.205199,-0.578676 3.296969,-0.905734 1.969929,-0.590127 4.419801,-1.471509 6.374849,-2.11494 1.583458,-0.521135 3.827259,-1.306338 5.535176,-1.515444 0.626923,-0.07676 1.263124,0.01475 1.894684,0.02213 1.319229,0.23392 1.983269,0.285448 3.225157,0.751968 2.163715,0.812809 3.894841,2.387588 5.563743,3.930385 1.078254,0.964391 2.4071,2.176978 3.527502,3.075411 3.199767,2.565846 6.723147,4.733017 10.593213,6.129911 1.10227,0.36989 2.191861,0.779971 3.306812,1.109671 4.15847,1.229693 8.63109,2.05932 12.985946,1.702966 0.976133,-0.07988 1.935215,-0.302985 2.902826,-0.454477 2.348971,-0.717709 3.187972,-0.864195 5.39433,-1.979695 3.403925,-1.720972 6.333561,-4.257463 8.742196,-7.192804 1.555123,-1.84418 3.103088,-3.69446 4.737176,-5.470012 0.881388,-0.957692 1.646653,-1.800749 2.671631,-2.598182 0.36296,-0.282385 0.76782,-0.506338 1.15173,-0.759508 0.84908,-0.345558 1.0729,-0.566341 1.99648,-0.466421 0.71074,0.07689 1.53506,0.48149 2.15916,0.767567 1.26257,0.578746 1.90342,0.919207 3.1859,1.566449 5.81135,3.023893 11.39643,6.460434 17.17163,9.552101 1.08865,0.587113 2.16557,1.196536 3.26596,1.761338 2.0591,1.056881 4.20056,2.19222 6.58316,2.143838 1.36784,-0.02778 1.81521,-0.284639 3.08703,-0.711413 0.50329,-0.23685 1.01898,-0.448973 1.50988,-0.710549 3.28962,-1.752892 6.0873,-4.261819 8.98824,-6.564267 2.01591,-1.644882 1.35808,-1.128878 3.32319,-2.655289 1.40311,-1.089865 2.77029,-2.309888 4.57061,-2.648283 0.33655,0.004 0.67524,-0.02628 1.00965,0.01186 0.50151,0.05719 1.84174,0.430453 2.26838,0.562454 1.82808,0.565607 3.6017,1.295472 5.33374,2.105772 5.26982,2.60923 10.33216,5.636508 15.74929,7.94074 0.86085,0.285465 1.70239,0.637586 2.58255,0.856396 3.09401,0.769184 6.44614,0.422826 9.51638,-0.255575 1.04158,-0.375856 1.56369,-0.466314 2.43939,-1.146988 1.47232,-1.144422 2.37658,-2.95984 3.20197,-4.575638 1.5077,-3.425368 2.58875,-7.007493 3.93628,-10.494583 0.63011,-1.338965 1.69896,-4.073044 3.13091,-4.7656287 0.61898,-0.2993777 1.48505,-0.165465 2.11502,-0.136614 1.32559,0.174033 1.80935,0.209907 3.16888,0.5158827 3.40561,0.766469 6.70479,1.955274 9.97335,3.160744 0.25387,0.09802 5.15028,1.985149 5.53077,2.144578 3.11959,1.307147 6.09887,2.922216 9.05093,4.56497 2.75501,1.661833 5.48861,3.457249 8.70885,4.059443 0.3754,0.07504 0.74822,0.164399 1.1262,0.225114 1.4178,0.227742 2.86808,0.115379 4.29336,0.27134 2.35938,0.150296 4.74115,0.183451 7.05489,0.723043 4.3065,1.074218 8.37972,2.814536 12.29471,4.899687 4.21065,2.218841 8.35017,4.731077 13.06102,5.741383 1.63536,0.328792 2.84557,0.61087 4.51109,0.787738 2.30934,0.245237 4.60947,0.05785 6.89195,-0.326699 3.27639,-0.676347 6.41498,-1.839513 9.49005,-3.147236 3.51279,-1.78201 6.86181,-3.85319 10.2099,-5.924604 3.31605,-1.887964 6.02149,-3.300735 9.97119,-2.8125 0.57909,0.148723 1.17189,0.251789 1.73733,0.44617 1.31898,0.453433 2.21533,0.985271 3.39024,1.727084 2.08767,1.31811 4.05022,2.821549 5.98361,4.353027 3.93522,3.158763 0.62418,0.485641 4.76684,3.877191 2.60559,2.133161 5.21017,4.302223 8.05778,6.11278 0.73956,0.470218 1.5213,0.870574 2.28192,1.305862 0.73015,0.350694 1.43894,0.749858 2.19043,1.052089 2.51399,1.011042 5.23793,1.147164 7.912,1.174837 z" /><path
       style="mix-blend-mode:normal;fill:#4d9ac2;fill-opacity:1;stroke:none;stroke-width:1.32292;stroke-linecap:round;stroke-linejoin:round;stroke-dasharray:none;stroke-opacity:1;filter:url(#filter29)"
       id="path15"
       d="m -18.030487,50.460971 c 5.411648,-1.872813 10.3615336,-4.761243 15.2383447,-7.713831 0.9859216,-0.644816 1.97737201,-1.281256 2.95776466,-1.934446 2.06152384,-1.3735 3.06727084,-2.055794 4.99246114,-3.537543 1.7062913,-1.313269 3.3389001,-2.721443 5.0246005,-4.060917 0.942577,-0.579819 1.581453,-1.12377 2.711061,-1.267403 2.440764,-0.310349 4.765739,1.715993 6.533827,3.072951 1.896685,1.610614 3.621463,3.405683 5.419533,5.122085 0.542728,0.518078 1.062258,1.062876 1.638843,1.542986 1.470173,1.22418 1.913471,1.369187 3.55786,2.276266 2.280412,1.038887 4.733065,1.76035 7.266778,1.480834 1.984931,-0.218978 2.425613,-0.575792 4.366718,-1.368261 5.045691,-2.459017 9.322577,-6.140405 14.00511,-9.181415 1.202684,-0.607875 1.782648,-1.111327 3.156095,-1.070255 2.382287,0.07124 4.557623,2.186603 6.242169,3.629159 2.080451,1.994549 4.270809,3.867002 6.722793,5.395561 1.424167,0.88782 1.862211,1.031121 3.350733,1.707928 2.181392,0.684821 4.659207,1.56324 6.984963,1.029184 2.017141,-0.463193 3.259508,-1.358546 5.045067,-2.374778 4.269642,-2.778107 7.749003,-6.513672 11.061036,-10.336424 1.036227,-1.09837 2.13993,-2.387421 3.73871,-2.599296 0.87741,-0.116278 1.32798,0.08507 2.18284,0.293465 0.43059,0.184408 0.87099,0.347396 1.29176,0.553226 0.84145,0.411613 2.02644,1.135814 2.82215,1.609394 1.59786,0.951002 3.1725,1.928942 4.73627,2.934977 3.13653,2.079662 6.21418,4.2349 9.48517,6.10048 2.33287,1.262451 4.78814,2.311021 7.46303,2.521569 0.68028,0.05355 1.37461,0.126283 2.04714,0.01069 0.81211,-0.13957 1.56682,-0.510961 2.35023,-0.766442 0.87669,-0.571992 1.79749,-1.081501 2.63009,-1.715977 1.88857,-1.439182 3.59835,-3.206461 5.19477,-4.950968 2.27924,-2.490676 4.36292,-5.151424 6.45025,-7.801491 1.3775,-1.729098 2.71011,-3.501734 4.25113,-5.092347 0.4488,-0.463237 1.21572,-1.225668 1.82375,-1.558557 0.25062,-0.137207 0.53814,-0.192219 0.80721,-0.288329 0.30218,0.01012 0.60975,-0.02731 0.90656,0.03036 1.42695,0.277249 2.80566,1.238118 4.00475,1.989884 1.88388,1.181087 2.12444,1.389993 3.98472,2.702 3.62512,2.662325 7.05558,5.569779 10.53009,8.420765 2.58627,2.211602 5.22671,4.351459 7.90478,6.449984 0.0539,0.04038 2.52627,1.894916 2.64954,1.98338 0.73591,0.528121 1.46627,1.127757 2.41559,1.236718 1.28514,0.147505 1.85486,-0.326218 2.989,-0.852004 3.87184,-2.789787 6.01398,-7.128787 7.88001,-11.391233 0.65472,-1.566469 1.08218,-3.205806 1.45501,-4.856872 0.045,-0.199375 0.35268,-1.703119 0.47345,-2.013683 0.0656,-0.1687 0.19274,-0.30644 0.28911,-0.45966 0.1329,-0.01607 0.26989,-0.08465 0.3987,-0.0482 1.04436,0.295552 2.38338,1.68484 3.13124,2.328416 2.17394,1.870803 1.47479,1.273061 3.74286,3.156417 1.89717,1.562013 3.88217,3.017046 5.9381,4.36308 0.82964,0.543166 2.42935,1.552757 3.374,1.999681 0.45453,0.215043 0.93861,0.361079 1.40792,0.541618 0.49836,0.01572 1.00308,0.128048 1.49509,0.04713 3.17998,-0.522981 6.17495,-4.209458 8.12258,-6.525614 1.13949,-1.35487 1.9985,-2.897151 2.9023,-4.407954 0.32039,-0.535577 0.68405,-1.223798 1.18562,-1.6449 0.13315,-0.111792 0.31154,-0.154431 0.46732,-0.231646 0.16283,0.119919 0.34706,0.215221 0.48851,0.359757 0.72351,0.739346 1.11242,1.547249 1.629,2.463547 1.19195,2.114241 2.29174,4.279989 3.4495,6.413027 1.54554,2.635406 3.023,5.367375 5.09065,7.644209 1.02787,1.131856 1.60677,1.564193 2.74076,2.525588 0.41828,0.280803 0.80134,0.623007 1.25486,0.84241 2.33928,1.1317 4.98284,0.541861 7.22016,-0.530476 0.68998,-0.3307 1.32671,-0.762617 1.99006,-1.143926 3.64233,-2.400941 5.67976,-5.8659 7.90743,-9.471684 0.55226,-0.64148 0.87717,-1.223912 1.71955,-1.49878 1.93029,-0.629848 4.19603,1.582473 5.46365,2.637544 3.4726,3.362767 6.23924,7.345259 9.47337,10.920336 0.57431,0.488973 1.40555,1.316466 2.18512,1.526127 2.95823,0.795602 6.67287,-1.25091 9.19821,-2.476532 5.38311,-2.780122 10.00017,-6.704465 14.60254,-10.584042 1.137,-0.737881 1.78583,-1.359379 3.16024,-1.537261 1.77101,-0.229217 3.63606,0.635389 5.03028,1.635294 0.63683,0.456708 1.19769,1.010968 1.79655,1.516449 3.02175,2.902527 5.52191,6.280658 8.54927,9.175557 1.75757,1.159676 3.79574,1.998988 5.94294,1.930275 1.52447,-0.04879 2.48282,-0.403698 3.96764,-0.798216 2.26356,-0.635571 4.46304,-1.474298 6.7121,-2.155489 1.10871,-0.335806 2.44441,-0.721556 3.61416,-0.847828 0.47143,-0.05089 0.94816,-0.01778 1.42224,-0.02667 1.73421,0.295021 2.94489,1.418191 4.15086,2.599807 0,0 0.297,-3.884602 0.297,-3.884602 v 0 c -1.30252,-1.216316 -2.62337,-2.32388 -4.45823,-2.586413 -0.49467,0.01712 -0.99261,-0.0081 -1.484,0.05133 -1.17948,0.142597 -2.54534,0.549654 -3.66244,0.89676 -2.23588,0.694749 -4.42798,1.530552 -6.68909,2.145983 -1.41417,0.363635 -2.38908,0.710295 -3.83923,0.74663 -2.06449,0.05172 -4.0204,-0.758436 -5.68003,-1.921925 -3.02532,-2.879744 -5.5431,-6.232414 -8.57874,-9.104315 -0.62074,-0.519025 -1.20063,-1.091294 -1.86227,-1.557076 -1.48831,-1.047723 -3.47946,-1.903928 -5.34731,-1.664365 -1.46153,0.187453 -2.10391,0.812509 -3.31078,1.59523 -4.53522,3.941886 -9.11455,7.892356 -14.5011,10.651945 -2.40231,1.151133 -6.02118,3.157005 -8.83012,2.315866 -0.71954,-0.215461 -1.53501,-1.026732 -2.06603,-1.484538 -3.26903,-3.540024 -6.06428,-7.496346 -9.52971,-10.86043 -1.48151,-1.239364 -3.72234,-3.408536 -5.93045,-2.753062 -0.9656,0.286636 -1.26489,0.839658 -1.91019,1.558075 -2.1298,3.533501 -4.19,7.164195 -7.71289,9.515992 -0.64373,0.376184 -1.26063,0.802613 -1.9312,1.128551 -2.13829,1.039331 -4.62587,1.595636 -6.85047,0.478485 -0.43625,-0.219077 -0.80908,-0.546462 -1.21362,-0.819692 -1.14811,-0.972767 -1.63747,-1.324044 -2.6731,-2.484517 -2.03054,-2.275297 -3.49932,-4.984414 -5.02331,-7.603715 -3.60863,-6.686185 1.21069,2.264966 -2.33042,-4.382472 -0.61884,-1.161693 -1.86553,-3.847947 -2.95646,-4.664217 -0.24913,-0.186408 -0.56964,-0.250538 -0.85446,-0.375807 -0.20765,0.08871 -0.44175,0.131384 -0.62295,0.266129 -0.56365,0.41915 -0.93023,1.127808 -1.26743,1.706527 -0.88807,1.524154 -1.69462,3.101525 -2.82912,4.468582 -1.79193,2.185867 -4.81711,5.919483 -7.77749,6.438958 -0.44866,0.07873 -0.91064,-0.02686 -1.36595,-0.04029 -0.45231,-0.171037 -0.9183,-0.309538 -1.35693,-0.513114 -0.99214,-0.46047 -2.45882,-1.375196 -3.3399,-1.948276 -2.04878,-1.332567 -4.01972,-2.784453 -5.90159,-4.343784 -2.49139,-2.09332 -1.35412,-1.110901 -3.73029,-3.210707 -0.91902,-0.812138 -2.13663,-2.197391 -3.44732,-2.456852 -0.23703,-0.04692 -0.48112,0.04556 -0.72167,0.06834 -0.14614,0.167521 -0.34098,0.302749 -0.43841,0.502563 -0.13512,0.277104 -0.44692,1.898615 -0.48183,2.064367 -0.35077,1.66523 -0.73588,3.324361 -1.37623,4.908163 -1.78392,4.22327 -3.83526,8.518423 -7.60805,11.325115 -0.97877,0.47693 -1.55578,0.958813 -2.68337,0.819362 -0.85005,-0.105124 -1.64762,-0.739375 -2.30393,-1.205238 -0.61991,-0.440018 -2.05781,-1.53171 -2.64011,-1.970839 -2.67032,-2.099045 -5.29631,-4.248761 -7.89814,-6.4324 -3.48029,-2.839545 -6.94268,-5.702027 -10.56015,-8.368521 -1.61425,-1.146062 -2.3632,-1.708192 -4.00891,-2.761758 -1.25839,-0.805608 -2.69154,-1.797184 -4.20017,-2.073643 -0.34423,-0.06308 -0.69957,-0.02257 -1.04935,-0.03386 -0.30757,0.102469 -0.63568,0.1567 -0.92272,0.307407 -0.64776,0.340106 -1.4256,1.132115 -1.8982,1.627901 -1.55225,1.628401 -2.88731,3.442237 -4.2687,5.212689 -2.06747,2.668462 -4.13896,5.341634 -6.40908,7.843931 -1.58505,1.747165 -3.23157,3.459204 -5.11371,4.89585 -0.80159,0.611857 -1.68962,1.101293 -2.53443,1.651942 -0.74298,0.243334 -1.45835,0.597998 -2.22894,0.730006 -0.65387,0.112014 -1.32895,0.04632 -1.99018,-0.0072 -2.62588,-0.212667 -5.02938,-1.295112 -7.32237,-2.519839 -3.2531,-1.885976 -6.32154,-4.051067 -9.46569,-6.110205 -1.56973,-1.008183 -3.14819,-1.99635 -4.74887,-2.954826 -0.80405,-0.481457 -2.02112,-1.22074 -2.87254,-1.63325 -0.4416,-0.213954 -0.90379,-0.382508 -1.35568,-0.573762 -0.96109,-0.228556 -1.39423,-0.42796 -2.37879,-0.307084 -1.70215,0.208975 -2.881244,1.469492 -3.96694,2.670487 -3.243765,3.867336 -6.661891,7.653968 -10.92205,10.43436 -1.729299,0.983017 -2.919794,1.849139 -4.87299,2.282216 -2.266882,0.502632 -4.677582,-0.37565 -6.800064,-1.04154 -1.494536,-0.676986 -1.853751,-0.782965 -3.285951,-1.676228 -2.442879,-1.523627 -4.595286,-3.422179 -6.682377,-5.391711 -1.839749,-1.559688 -3.977257,-3.631339 -6.572779,-3.683757 -1.477796,-0.02984 -2.030762,0.473034 -3.314833,1.133931 -4.640455,3.071426 -8.887769,6.768978 -13.92933,9.20384 -1.829102,0.728528 -2.355988,1.100389 -4.228426,1.305447 -2.464694,0.269922 -4.85186,-0.447059 -7.066758,-1.460101 -1.65934,-0.928817 -1.976856,-1.007742 -3.465465,-2.252363 -0.571858,-0.478129 -1.093841,-1.012981 -1.634784,-1.525823 -1.813171,-1.718993 -3.549882,-3.520369 -5.461769,-5.132902 -1.934651,-1.48115 -4.244228,-3.484675 -6.89946,-3.157518 -1.203635,0.148303 -1.846083,0.69252 -2.8535844,1.30266 -1.6800041,1.371258 -3.3037375,2.813063 -5.0054658,4.157438 -1.9682197,1.554906 -2.8414152,2.155089 -4.96601703,3.593729 -0.97518907,0.660334 -1.96201697,1.303314 -2.94302557,1.954972 -4.8174433,2.936264 -9.7339552,5.783869 -15.1650732,7.436482 z" /><path
       style="mix-blend-mode:normal;fill:#4d9ac2;fill-opacity:1;stroke:none;stroke-width:1.32292;stroke-linecap:round;stroke-linejoin:round;stroke-dasharray:none;stroke-opacity:1;filter:url(#filter30)"
       id="path16"
       d="m 353.31191,-9.8481763 c -2.3589,3.2745792 -4.79055,6.4939132 -7.23144,9.70756552 -1.45954,1.87053758 -2.86774,3.78353768 -4.44957,5.55496148 -0.69197,0.7749207 -1.47186,1.6091061 -2.30463,2.2468038 -0.34404,0.2634567 -0.72679,0.4721147 -1.09019,0.7081717 -0.71498,0.3238437 -1.46532,0.7464514 -2.28021,0.7759764 -2.60448,0.09436 -5.04494,-2.0310558 -6.96491,-3.4898139 -1.96424,-1.5579347 -3.79064,-3.2759209 -5.69699,-4.90181096 -0.9457,-0.80656096 -1.61933,-1.59091228 -2.90824,-1.79350794 -0.49985,-0.078563 -1.00899,0.077227 -1.51347,0.11584036 -0.50451,0.2536073 -1.05188,0.43570036 -1.51355,0.76082146 -1.07291,0.75556282 -2.54315,2.37879608 -3.36725,3.33335348 -1.64549,1.9060499 -3.14531,3.9469887 -4.68693,5.9365335 -1.5263,1.8982514 -3.18686,3.7255264 -5.42563,4.7859674 -1.32662,0.628378 -1.68777,0.608188 -3.14439,0.908445 -0.58433,0.01996 -1.16922,0.09203 -1.75302,0.05988 -4.06903,-0.224107 -7.7025,-2.647828 -11.08125,-4.674648 -3.9415,-2.4330775 -7.71612,-5.148135 -11.81042,-7.3257392 -1.09326,-0.4755002 -2.22083,-1.0299002 -3.45432,-0.9424913 -1.55789,0.1103983 -2.93179,0.9745192 -4.25672,1.7034973 -3.30282,2.0212939 -5.95367,4.9068411 -9.12687,7.1025402 -0.4773,0.330269 -0.98147,0.619904 -1.47221,0.929857 -1.28155,0.679017 -2.67063,1.393657 -4.1839,1.214992 -2.54275,-0.300211 -5.83719,-1.915871 -8.16105,-2.9041727 -4.54741,-2.0178821 -9.06827,-4.1159259 -13.75967,-5.7858803 -2.55318,-0.9088319 -2.9586,-0.9793312 -5.46521,-1.682602 -2.01395,-0.254662 -3.07614,-0.5241562 -5.10754,-0.2503645 -2.77091,0.3734621 -5.50465,1.6019634 -7.82367,3.1255982 -0.86837,0.5705317 -1.66031,1.2496604 -2.49046,1.8744911 -2.05801,1.7106768 -3.95899,3.5965262 -5.80329,5.5320582 -0.43471,0.456215 -0.86194,0.919523 -1.28853,1.383346 -0.34238,0.372279 -0.63915,0.790162 -1.01833,1.124896 -0.3452,0.304737 -0.75991,0.52023 -1.13986,0.780345 -0.48423,0.116102 -0.95777,0.293289 -1.45267,0.348306 -1.21972,0.135592 -2.52815,-0.06226 -3.7156,-0.290059 -2.35981,-0.45271 -4.46438,-1.231915 -6.68429,-2.122683 -4.87459,-2.225712 -9.06623,-5.5511251 -13.17332,-8.930947 -1.33595,-0.9041911 -3.0797,-3.2077639 -4.92827,-2.9125223 -1.03382,0.1651153 -1.42242,0.75347 -2.17459,1.4331861 -2.22714,2.4086016 -3.86182,5.2849511 -5.9961,7.7668462 -0.33559,0.390244 -0.70529,0.749804 -1.05793,1.124707 -0.91204,0.771216 -2.25943,1.763654 -3.4975,1.900094 -2.28186,0.25147 -4.62739,-0.820134 -6.69579,-1.565884 -5.21113,-2.313484 -10.35992,-4.7702268 -15.44527,-7.3488323 -1.13221,-0.3825797 -3.70775,-2.1636031 -4.91397,-2.043665 -0.99627,0.099062 -1.28657,0.684878 -1.95336,1.3643853 -1.92037,2.4973808 -3.32419,5.387346 -5.37692,7.785673 -0.27768,0.324434 -0.59011,0.61744 -0.88516,0.926159 -0.3227,0.181567 -0.61589,0.43047 -0.9681,0.544701 -2.29619,0.744706 -5.8822,-0.955131 -7.91263,-1.911243 -4.33439,-2.2253557 -8.42351,-4.8831552 -12.6867,-7.235736 -1.91235,-0.8619672 -3.91758,-2.4869397 -6.171338,-2.1367419 -1.479304,0.2298601 -2.527202,0.9356464 -3.82633,1.6223129 -3.348995,2.1756501 -6.018138,5.1954463 -9.164606,7.623642 -0.567719,0.438121 -1.168101,0.832203 -1.752152,1.248304 -2.102279,1.249837 -4.34571,2.507303 -6.824663,2.787532 -1.537398,0.173794 -1.871408,0.0076 -3.388262,-0.247158 C 70.274555,15.575343 69.634602,15.406948 69.038326,15.131807 66.407408,13.917814 64.064432,12.074446 61.695213,10.439001 58.992944,8.5736569 58.990547,8.5899729 56.26536,6.7816841 53.972203,5.3561707 51.683861,3.8303985 49.171346,2.8015108 46.963533,1.8974002 44.655575,1.4542797 42.320358,1.0460372 c -1.69072,-0.092858 -2.813611,-0.23279926 -4.50137,-0.017319 -2.03005,0.2591809 -3.291607,0.7368729 -5.238504,1.4926661 -2.168128,0.841677 -3.87188,1.6619381 -5.984756,2.6314587 -3.395008,1.5781211 -6.746494,3.2724339 -10.319982,4.4217473 -0.719421,0.231381 -1.439779,0.4689487 -2.178966,0.6261317 -0.767039,0.163105 -1.552638,0.221629 -2.328958,0.332445 -0.837893,-0.02433 -1.682733,0.03738 -2.5136806,-0.073 C 7.073045,10.170443 4.6463624,9.3540026 2.5938333,8.6573329 -0.70918342,7.5362225 -3.9621867,6.2557344 -7.2387695,5.060051 -10.675549,3.8051054 -14.190348,2.7663054 -17.766388,1.9937531 c -0.317673,-0.059385 -0.635346,-0.1187695 -0.953019,-0.1781542 0,0 -0.06887,3.9141248 -0.06887,3.9141248 v 0 c 0.31403,0.05292 0.628059,0.1058417 0.942089,0.1587627 3.556509,0.7094357 7.050407,1.7132431 10.4792168,2.8909895 3.2890849,1.1604574 6.54827908,2.4100711 9.8460647,3.5449651 2.0285976,0.698117 4.5990758,1.60073 6.7631573,1.910083 0.8512032,0.121678 1.7187222,0.05835 2.5780832,0.08752 0.794637,-0.108284 1.599378,-0.158478 2.383911,-0.324852 0.747969,-0.15862 1.473902,-0.409498 2.200564,-0.647365 3.586573,-1.174032 6.945626,-2.88574 10.350626,-4.4903201 3.47577,-1.5981691 7.244199,-3.5376042 11.082425,-4.0266189 1.705546,-0.2172968 2.707518,-0.08279 4.416896,0.01182 1.861256,0.323915 2.641809,0.4040107 4.46696,0.9494714 3.363566,1.0052297 6.392434,2.8052455 9.326329,4.6931676 2.512074,1.666422 2.935764,1.928205 5.420546,3.654378 2.402527,1.669031 4.767254,3.569309 7.438218,4.810102 0.617389,0.286807 1.281811,0.458985 1.922716,0.688478 1.580028,0.258674 1.928852,0.4279 3.528168,0.250237 2.536878,-0.281812 4.824445,-1.563766 6.981664,-2.832649 0.594752,-0.415171 1.208434,-0.804457 1.784252,-1.245513 3.139541,-2.404778 5.746208,-5.467382 9.084283,-7.6256508 1.225355,-0.6520997 2.22853,-1.3348144 3.624586,-1.5520481 2.172049,-0.337983 4.137638,1.2678481 5.997372,2.0622918 4.29164,2.3244041 8.37742,5.0034711 12.70867,7.2567331 2.21325,1.042689 5.76295,2.72259 8.27356,1.984255 0.39183,-0.115231 0.72499,-0.376329 1.08748,-0.564494 0.30763,-0.317233 0.63379,-0.617503 0.9229,-0.9517 0.86926,-1.004794 1.22914,-1.620138 1.97848,-2.749244 1.11361,-1.677994 2.21215,-3.366437 3.36914,-5.0151861 0.43366,-0.5064977 0.80793,-1.2117914 1.56417,-1.3107191 1.08195,-0.141535 3.77494,1.5993758 4.80695,1.9238078 5.128,2.5035144 10.28804,4.9439634 15.48907,7.2913274 2.11511,0.791035 4.60831,1.907586 6.95014,1.697883 1.25232,-0.11214 2.76103,-1.149383 3.68897,-1.927363 0.36307,-0.382889 0.74483,-0.74888 1.0892,-1.148667 2.12276,-2.464344 3.73864,-5.3298457 5.94262,-7.7310665 0.57258,-0.5614007 1.01704,-1.2096561 1.85469,-1.3792631 1.53626,-0.3110637 3.56671,2.0379098 4.69769,2.7835765 4.17081,3.3468651 8.38695,6.6879341 13.28807,8.9250691 2.22539,0.888567 4.41128,1.694958 6.77066,2.161509 1.26145,0.249443 2.56571,0.457609 3.85927,0.332313 0.54064,-0.05237 1.06212,-0.228043 1.59319,-0.342064 0.41306,-0.265434 0.86851,-0.474314 1.23918,-0.7963 0.38654,-0.335768 0.67001,-0.774444 1.00991,-1.157361 0.4225,-0.475983 0.84556,-0.951575 1.27723,-1.419266 1.81298,-1.964274 3.69214,-3.871566 5.73809,-5.596322 0.81415,-0.617913 1.59092,-1.2884547 2.44246,-1.8537404 2.26792,-1.5055411 4.92402,-2.7159405 7.64254,-3.0864182 2.01231,-0.2742347 2.99754,-0.0154 4.99484,0.236254 2.45558,0.6588194 2.93606,0.7437234 5.43398,1.6099931 4.70076,1.6302078 9.21635,3.7291835 13.74148,5.7834885 1.82788,0.798885 4.08547,1.844543 6.00855,2.473605 0.76128,0.249026 1.5316,0.499647 2.32571,0.604315 1.58217,0.20854 3.04068,-0.523418 4.37805,-1.239962 1.55209,-0.987664 1.62661,-0.979431 3.12995,-2.183171 2.46177,-1.97116 4.73146,-4.2065744 7.44547,-5.8460115 1.2418,-0.6837224 2.56834,-1.5384281 4.03199,-1.6449131 1.1725,-0.0853 2.25563,0.472032 3.2989,0.9066707 4.09528,2.1152018 7.88385,4.7597999 11.79505,7.1868279 3.45234,2.086332 7.13113,4.556342 11.29591,4.791453 0.60468,0.03414 1.21068,-0.03791 1.81602,-0.05687 1.50775,-0.28991 1.89045,-0.264443 3.26705,-0.900844 2.30642,-1.066277 4.0174,-2.909645 5.57302,-4.86603 1.52998,-1.991909 3.01747,-4.0363441 4.65434,-5.9430332 0.78846,-0.9184554 2.22012,-2.4956491 3.23966,-3.2472969 0.41553,-0.306352 0.90726,-0.4929383 1.36089,-0.7394074 0.44423,-0.04188 0.89188,-0.1946029 1.33273,-0.1256395 1.16824,0.1827534 1.93045,1.0047691 2.78633,1.7197434 1.92408,1.607293 3.76177,3.3146241 5.7214,4.8798552 2.08259,1.5875194 4.48289,3.6775654 7.29835,3.6087654 0.87958,-0.02149 1.63888,-0.445094 2.41345,-0.786796 0.38251,-0.242191 0.78607,-0.453907 1.14747,-0.726572 0.86659,-0.653801 1.64269,-1.496536 2.35633,-2.3028374 1.58641,-1.7924131 2.98786,-3.7321399 4.46391,-5.6135823 2.4298,-3.15501142 4.85548,-6.3126501 7.21495,-9.5209232 z" /><path
       style="mix-blend-mode:normal;fill:#4d9ac2;fill-opacity:1;stroke:none;stroke-width:1.32292;stroke-linecap:round;stroke-linejoin:round;stroke-dasharray:none;stroke-opacity:1;filter:url(#filter31)"
       id="path17"
       d="m -28.593677,59.411379 c 4.203041,-2.905324 8.524377,-5.649338 12.876864,-8.327168 4.604148,-2.713521 9.4184026,-5.093184 14.5612266,-6.599589 2.9312019,-0.858589 4.0988804,-1.000493 7.0605598,-1.550871 2.3380946,-0.179089 4.3802296,-0.429805 6.7223566,-0.256649 4.285658,0.316847 8.429099,1.704891 12.517441,2.922747 4.58392,1.254939 9.300814,2.426821 14.091336,2.361189 0.898811,-0.0123 1.793687,-0.12138 2.690529,-0.182073 0.906294,-0.146947 1.822019,-0.24438 2.718883,-0.440841 3.148369,-0.689655 6.205484,-1.806414 9.223631,-2.914409 3.179604,-1.167265 2.640431,-0.974627 5.73808,-2.183789 0.92107,-0.350054 1.835599,-0.71783 2.76321,-1.050163 3.289197,-1.178407 6.971252,-2.456355 10.44766,-2.878309 0.960337,-0.116563 1.931633,-0.110109 2.897452,-0.165164 3.429011,0.03748 6.801543,0.687745 10.043581,1.782395 1.372383,0.463373 2.381999,0.901668 3.715512,1.44885 3.172761,1.519844 6.491819,2.607969 10.042284,2.651689 0.784191,0.0097 1.566761,-0.07367 2.350151,-0.110511 5.06882,-0.59404 8.98631,-3.4832 13.00946,-6.358073 3.23964,-2.514047 6.95153,-4.451657 11.09202,-4.858181 0.80868,-0.0794 1.62482,-0.03223 2.43722,-0.04835 0.81324,0.120131 1.64199,0.161835 2.43971,0.360397 4.3424,1.080876 8.25796,3.873381 11.84111,6.437352 1.94957,1.356003 3.90979,2.861064 6.1388,3.746741 1.29316,0.513826 1.858,0.562996 3.23546,0.844441 1.89353,0.246592 3.84097,0.520105 5.75202,0.246274 2.29253,-0.328493 4.43396,-1.245732 6.54751,-2.134589 3.42778,-1.573004 6.64951,-3.558019 10.17816,-4.903848 1.00264,-0.292698 1.64,-0.539856 2.71674,-0.580602 2.55267,-0.0966 4.89517,0.924414 7.16344,1.949103 3.14609,1.605373 6.06127,3.60662 9.08114,5.426263 1.20374,0.696389 2.43345,1.358839 3.74954,1.820325 0.37309,0.130826 0.74299,0.29626 1.13569,0.342062 1.16937,0.136387 1.9947,-0.138195 3.13209,-0.374915 3.82819,-1.242848 6.89559,-3.799914 9.79885,-6.485641 1.46301,-1.364843 2.91433,-2.84271 4.74415,-3.720351 0.93261,-0.447313 1.31251,-0.493678 2.30839,-0.751046 0.42114,-0.02342 0.84229,-0.09373 1.26343,-0.07029 2.35821,0.131257 4.52004,1.298752 6.6244,2.246286 0.72007,0.324225 1.4443,0.639132 2.16645,0.958699 2.82182,1.119902 5.58201,2.569469 8.5793,3.188314 0.41304,0.08528 0.83385,0.127225 1.25078,0.190836 2.34712,0.02843 4.37033,-1.170334 6.3899,-2.214364 2.32341,-1.201106 1.73304,-0.895819 4.03668,-2.100334 2.65444,-1.471835 5.60149,-2.494331 8.6501,-2.696152 1.81609,-0.120227 2.64931,0.07174 4.43464,0.298347 4.27081,1.023276 8.22191,2.999412 12.37169,4.393112 2.10124,0.588648 4.28877,1.14028 6.48221,0.741212 1.65545,-0.301186 2.95252,-0.846553 4.53864,-1.414838 4.47691,-1.732301 8.88042,-3.706585 13.49539,-5.058376 0.75663,-0.221625 1.52461,-0.402473 2.2869,-0.60371 2.91589,-0.665192 5.89116,-1.110687 8.87764,-0.667382 1.90786,0.283196 3.93558,0.866655 5.79369,1.350589 4.55803,1.387173 8.99843,3.135942 13.63234,4.263771 1.77572,0.355991 3.55677,0.63106 5.37348,0.458126 2.30565,-0.219475 4.56393,-0.91023 6.7874,-1.514512 3.25155,-0.914223 6.44951,-2.183109 9.82031,-2.610342 0.49246,-0.06242 0.98956,-0.08013 1.48436,-0.120198 2.91783,-0.126722 5.73635,0.583647 8.51059,1.392037 0.40637,0.122232 0.81272,0.244464 1.21909,0.366696 0,0 0.11163,-3.885668 0.11163,-3.885668 v 0 c -0.40717,-0.118091 -0.81436,-0.23618 -1.22153,-0.354272 -2.82059,-0.811297 -5.69076,-1.519467 -8.65277,-1.385257 -1.42375,0.128156 -1.74982,0.116427 -3.19178,0.424944 -2.77963,0.594723 -5.45401,1.604431 -8.17983,2.390529 -2.193,0.5905 -4.42119,1.260594 -6.69539,1.463831 -1.78315,0.159353 -3.53229,-0.125513 -5.27523,-0.467743 -4.62923,-1.090687 -9.08095,-2.770246 -13.62726,-4.14995 -1.65886,-0.435925 -4.1475,-1.135879 -5.85682,-1.406029 -3.03114,-0.479057 -6.05046,-0.02924 -9.00895,0.662688 -0.76859,0.208253 -1.54305,0.395832 -2.30574,0.624754 -4.60595,1.382507 -9.00636,3.373459 -13.50613,5.050793 -1.64481,0.576387 -2.7423,1.044773 -4.4423,1.340551 -2.14289,0.372843 -4.27221,-0.167322 -6.32648,-0.734068 -4.17703,-1.376767 -8.16407,-3.309805 -12.44802,-4.354113 -1.82462,-0.223139 -2.67876,-0.413927 -4.53489,-0.288292 -3.07872,0.208388 -6.10223,1.191209 -8.7803,2.693344 -2.75191,1.44472 -1.248,0.665271 -4.03417,2.087253 -1.94552,0.992942 -3.89898,2.142421 -6.15103,2.133793 -0.40411,-0.05989 -0.81187,-0.09894 -1.21235,-0.17966 -2.96905,-0.598392 -5.72949,-1.969706 -8.5155,-3.096625 -2.63379,-1.206391 -6.05228,-3.125848 -8.97147,-3.303098 -0.44631,-0.0271 -0.89318,0.04407 -1.33976,0.0661 -1.02753,0.256151 -1.44422,0.30734 -2.41004,0.758698 -1.87316,0.875371 -3.35367,2.380573 -4.83304,3.780928 -2.83636,2.664639 -5.82109,5.221549 -9.59042,6.45143 -1.09882,0.226663 -1.81846,0.47984 -2.93909,0.334807 -0.38079,-0.04928 -0.74027,-0.206352 -1.10251,-0.333672 -1.29299,-0.454461 -2.50484,-1.101061 -3.68788,-1.78567 -3.02666,-1.82344 -5.95935,-3.814106 -9.12904,-5.391134 -3.44292,-1.536518 -6.43335,-2.699793 -10.18376,-1.424982 -1.24238,0.482761 -1.54627,0.571698 -2.78284,1.180568 -2.4891,1.2256 -4.86348,2.682885 -7.4042,3.80755 -2.07138,0.876001 -4.16417,1.78236 -6.41472,2.098005 -1.88001,0.263676 -3.79423,-0.0046 -5.65381,-0.267552 -1.37157,-0.296653 -1.8598,-0.337587 -3.14284,-0.857739 -2.19467,-0.889725 -4.13862,-2.342883 -6.07857,-3.665591 -3.63339,-2.529758 -7.663,-5.353454 -12.01871,-6.43692 -0.81797,-0.203466 -1.66827,-0.242348 -2.5024,-0.363522 -0.83164,0.0175 -1.667,-0.02807 -2.49491,0.05251 -4.18639,0.407452 -7.99087,2.301427 -11.26179,4.864522 -3.94956,2.851177 -7.80803,5.711698 -12.7924,6.335506 -2.056524,0.100084 -2.567508,0.219721 -4.623083,-0.06156 -2.680197,-0.366755 -5.153702,-1.419405 -7.603534,-2.510502 -1.403165,-0.564639 -2.303124,-0.953699 -3.751932,-1.424715 -3.290425,-1.069737 -6.710857,-1.67953 -10.175203,-1.722808 -0.982163,0.05104 -1.969529,0.03999 -2.94649,0.153112 -4.565568,0.528643 -8.992444,2.411923 -13.281329,3.9493 -3.407265,1.348941 -2.21782,0.89984 -5.728462,2.199325 -3.0007,1.110729 -6.016088,2.203506 -9.153784,2.873759 -0.886524,0.189373 -1.789695,0.290068 -2.684545,0.435102 -0.883316,0.06273 -1.764517,0.174493 -2.649953,0.188195 -4.757211,0.07362 -9.443963,-1.095785 -13.99853,-2.328883 -4.040067,-1.191157 -8.408272,-2.614007 -12.624977,-2.912528 -2.138135,-0.151368 -4.6783404,0.124153 -6.7906907,0.283567 -2.952778,0.56161 -4.1872595,0.72376 -7.1097303,1.583394 -5.162547,1.518544 -9.981363,3.922082 -14.646255,6.571321 -4.333914,2.646831 -8.633202,5.352394 -12.922218,8.069921 z" /><path
       style="mix-blend-mode:normal;fill:#4d9ac2;fill-opacity:1;stroke:none;stroke-width:1.32292;stroke-linecap:round;stroke-linejoin:round;stroke-dasharray:none;stroke-opacity:1;filter:url(#filter32)"
       id="path18"
       d="m 363.27535,53.089917 c -1.99822,-1.426732 -3.88504,-2.998208 -5.89767,-4.406337 -2.16601,-1.515419 -2.49865,-1.673847 -4.79684,-3.093278 -3.80524,-2.212059 -7.75462,-4.24511 -11.88091,-5.797687 -2.20789,-0.830758 -3.24908,-1.073645 -5.48984,-1.70379 -2.97021,-0.684353 -6.00305,-1.303102 -9.05997,-1.426475 -1.69219,-0.06829 -2.16331,0.04561 -3.83794,0.227534 -4.36152,1.020855 -8.44708,2.927564 -12.61371,4.529434 -3.34185,1.044466 -6.83271,1.731547 -10.33534,1.920819 -2.68333,0.145 -3.77328,7.94e-4 -6.4616,-0.162234 -2.97911,-0.361826 -5.95609,-0.798129 -8.89662,-1.404242 -1.69566,-0.349514 -3.36857,-0.803468 -5.06336,-1.157192 -0.89667,-0.187148 -1.79959,-0.343122 -2.69938,-0.514683 -4.96988,-0.960856 -10.01194,-1.411399 -15.06095,-1.664714 -3.58392,0.251092 -7.11436,1.09048 -10.39173,2.573179 -0.51216,0.231706 -1.00517,0.503595 -1.50776,0.755393 -1.52671,0.803304 -2.97462,1.837944 -4.66826,2.276645 -1.48998,0.385947 -2.2789,0.357613 -3.9167,0.486671 -6.85091,0.389121 -13.59104,-0.960757 -20.236,-2.451912 -6.52017,-1.626462 -13.07151,-3.110145 -19.72027,-4.099393 -2.82523,-0.37542 -5.71996,-0.517464 -8.50334,0.220525 -0.5352,0.141904 -1.07317,0.295587 -1.57293,0.533961 -0.55085,0.262747 -1.03939,0.639966 -1.55909,0.95995 -2.72817,2.178712 -4.86209,4.961859 -7.27042,7.464224 -1.27973,1.267238 -2.65647,1.771129 -4.45237,1.386983 -0.38038,-0.08136 -0.74465,-0.22524 -1.11698,-0.33786 -3.73798,-1.533069 -6.73688,-4.262141 -9.65018,-6.979464 -1.88916,-1.617602 -3.5125,-3.525917 -5.37934,-5.165326 -0.88207,-0.774615 -1.2722,-1.015807 -2.20194,-1.671849 -0.63236,-0.383201 -1.06338,-0.751046 -1.82453,-0.823325 -1.63931,-0.155668 -3.03985,1.224748 -4.16375,2.197888 -2.49077,2.511198 -4.90323,5.108721 -7.61937,7.380595 -1.45188,1.118343 -3.1785,1.625118 -4.96366,1.914183 -0.53699,0.08695 -1.07572,0.178052 -1.61904,0.204785 -0.64056,0.03152 -1.28251,-0.02032 -1.92377,-0.03046 -4.25032,-0.244128 -8.32545,-1.574517 -12.35735,-2.84439 -2.94348,-0.986361 -5.91137,-1.755529 -8.97985,-2.216986 -3.0661,-0.48075 -6.20789,-0.973426 -9.27422,-0.202583 -0.57891,0.145534 -1.13325,0.375533 -1.69987,0.5633 -3.32826,1.44466 -5.888075,4.051485 -8.705147,6.251538 -1.574623,1.167315 -3.341986,1.878187 -5.333511,1.732108 -1.649023,-0.120958 -2.924071,-0.564453 -4.530092,-1.000925 -5.383387,-1.600584 -10.462882,-4.055563 -15.773209,-5.857658 -0.97073,-0.329425 -1.960618,-0.59944 -2.940926,-0.89916 -4.033282,-1.043276 -8.179917,-1.700205 -12.353983,-1.300697 -2.867814,0.274484 -3.613745,0.608793 -6.40606,1.370579 -4.914524,1.557006 -9.523442,3.878873 -14.236917,5.930127 -1.70883,0.628666 -3.512957,1.43796 -5.385268,1.297575 -1.477576,-0.110787 -1.846151,-0.430771 -3.268496,-1.046049 -3.478341,-1.869652 -6.6272,-4.272552 -9.959958,-6.377853 -2.419887,-1.528643 -2.903526,-1.749859 -5.372941,-3.11446 -2.6355244,-1.38438 -5.4815502,-2.264773 -8.3882622,-2.866086 -1.00847953,-0.208624 -2.01868535,-0.441246 -3.0455671,-0.519149 -2.9730699,-0.225547 -4.5049823,0.115054 -7.4644966,0.477599 -6.4009991,1.059069 -12.3253531,3.653229 -17.9695661,6.753466 -1.600477,0.944805 -3.21977,1.849008 -4.888216,2.667328 0,0 0.179445,3.900643 0.179445,3.900643 v 0 c 1.683602,-0.841248 3.309194,-1.776359 4.902755,-2.779175 5.613113,-3.219736 11.383968,-5.791893 17.8196641,-6.880445 3.0846916,-0.368321 4.2718786,-0.673991 7.3569598,-0.412488 1.01765034,0.08626 2.01941546,0.313256 3.0188671,0.523375 2.8751156,0.604443 5.6777971,1.505125 8.29043,2.86299 2.422304,1.332146 2.976036,1.589059 5.34479,3.089892 3.362009,2.13016 6.523013,4.579384 10.019526,6.493385 1.5102,0.658434 1.870996,0.986367 3.441878,1.106205 1.927243,0.147026 3.780398,-0.661789 5.528489,-1.340824 4.685152,-2.111264 9.264809,-4.491551 14.175502,-6.06184 2.726142,-0.742788 3.520781,-1.086776 6.32115,-1.355016 4.132109,-0.395806 8.239424,0.270987 12.229724,1.30787 0.973227,0.297172 1.955139,0.56727 2.919682,0.891516 5.33001,1.791751 10.444356,4.188505 15.802481,5.904929 4.043537,1.157316 6.596147,1.954633 10.222835,-0.644811 2.780091,-2.1913 5.303168,-4.785201 8.573668,-6.262809 0.54757,-0.188727 1.08226,-0.420092 1.64271,-0.566177 3.01951,-0.78704 6.12655,-0.278735 9.14563,0.209537 3.02957,0.506093 6.00028,1.261044 8.92534,2.202664 4.07701,1.239478 8.18266,2.566662 12.46377,2.840038 0.65966,0.0191 1.3195,0.08184 1.97898,0.05732 0.55268,-0.02056 1.10136,-0.108207 1.64801,-0.192149 1.84381,-0.283135 3.64772,-0.77262 5.15876,-1.910884 2.71055,-2.282947 5.10486,-4.901208 7.62693,-7.385558 0.93983,-0.830749 2.37365,-2.281147 3.77089,-2.143945 0.66522,0.06532 1.1513,0.454597 1.70062,0.784834 0.97398,0.685749 1.2173,0.820785 2.1489,1.639271 1.85921,1.633455 3.5124,3.495696 5.38564,5.115433 2.96673,2.757625 6.04458,5.478734 9.82254,7.073548 0.39476,0.116326 0.78132,0.265295 1.18426,0.34898 1.88758,0.392017 3.44646,-0.07001 4.81184,-1.409616 2.38788,-2.505366 4.46884,-5.316325 7.17173,-7.50929 0.49113,-0.314243 0.95128,-0.683181 1.47338,-0.942726 0.4827,-0.239959 1.00335,-0.399743 1.52208,-0.546365 2.73142,-0.772054 5.5845,-0.643461 8.37098,-0.306438 6.6447,0.927942 13.19053,2.377692 19.69311,4.022765 6.68444,1.49012 13.45191,2.840874 20.34081,2.560905 1.6349,-0.07807 2.5123,-0.02408 4.02034,-0.383612 1.72853,-0.412099 3.19241,-1.476017 4.72234,-2.319115 3.75382,-1.949177 7.44277,-3.121319 11.69987,-3.369633 5.03108,0.224544 10.05827,0.640445 15.0073,1.614879 0.89548,0.175176 1.79382,0.336439 2.68648,0.525529 1.72045,0.36444 3.35557,0.803233 5.08097,1.144746 2.95723,0.585338 5.95083,0.988158 8.94086,1.358429 2.51904,0.156422 4.00145,0.31782 6.52176,0.201163 3.53431,-0.163594 7.05443,-0.864039 10.43724,-1.869485 4.13639,-1.586193 8.18343,-3.494005 12.51635,-4.497186 1.6284,-0.181147 2.11751,-0.295185 3.76343,-0.238649 3.03146,0.104129 6.04195,0.695693 8.99036,1.35945 2.24046,0.620189 3.2386,0.84632 5.44703,1.668344 4.11707,1.532477 8.05547,3.556455 11.81764,5.811652 2.24687,1.413282 2.65044,1.618453 4.7652,3.132735 2.02943,1.453163 3.9185,3.081766 5.91378,4.578879 z" /><path
       style="mix-blend-mode:normal;fill:#4d9ac2;fill-opacity:1;stroke:none;stroke-width:1.32292;stroke-linecap:round;stroke-linejoin:round;stroke-dasharray:none;stroke-opacity:1;filter:url(#filter33)"
       id="path19"
       d="m -14.12816,-14.991345 c 0.26879,0.121637 0.542418,0.233103 0.80637,0.364909 1.680991,0.839415 3.292238,1.825415 4.9318071,2.740536 1.2015348,0.670634 4.7493105,2.6254053 5.8532793,3.234348 8.6330136,4.6254353 17.9556046,7.79670846 27.2780436,10.7105648 5.521635,1.6634148 11.180596,2.8427402 16.911659,3.4834729 3.250917,0.3634517 4.379434,0.3780917 7.658317,0.5574877 5.947344,0.2987267 11.942117,0.180834 17.813655,-0.8972264 1.037621,-0.190515 2.061628,-0.448899 3.092442,-0.6733487 0.981495,-0.285515 1.978781,-0.5214787 2.944487,-0.8565447 4.727826,-1.6403938 9.333912,-4.20650748 13.826939,-6.4238379 2.356062,-1.1689394 4.865892,-2.0549411 7.489685,-2.3655458 0.697897,-0.08262 1.4014,-0.164405 2.103718,-0.139148 0.865762,0.03113 1.720466,0.205072 2.580701,0.307608 2.381447,0.5983757 3.549467,0.7940064 5.841787,1.7806468 2.01707,0.8681707 4.76644,2.43506476 6.64817,3.53008408 2.53831,1.47710302 3.88129,2.34272042 6.35499,3.88853552 3.92014,2.3605438 7.75468,4.9877773 12.043,6.6603767 0.58476,0.228076 1.18845,0.404263 1.78267,0.606395 3.95013,0.902538 7.22773,0.321715 10.87196,-1.375309 0.8006,-0.3728197 1.56644,-0.8161614 2.34966,-1.2242421 2.2739,-1.3099724 4.47995,-2.7307265 6.65378,-4.1992759 0.6354,-0.4292507 3.05951,-2.1144468 3.75729,-2.5373695 0.6274,-0.3802707 1.28549,-0.7074464 1.92823,-1.0611694 2.86986,-1.34328198 5.96954,-2.08472664 9.14538,-2.07588664 2.11814,0.0059 3.1149,0.223699 5.20098,0.52389266 5.40569,1.03409532 9.84778,3.70234378 14.45646,6.54145528 3.84983,2.4363585 7.58788,5.0468376 11.60563,7.2027266 2.39591,1.150008 5.19778,1.941828 7.87781,1.870629 1.94254,-0.05161 2.48651,-0.31655 4.37548,-0.816115 4.16633,-1.348403 7.64321,-4.003269 11.25203,-6.3741228 0.81822,-0.5375377 1.65484,-1.0465214 2.48226,-1.5697821 2.92428,-1.6657231 5.8711,-3.3527289 9.05546,-4.4807273 1.76479,-0.6251407 2.16474,-0.6556287 3.9815,-1.05768136 0.70046,-0.05831 1.39851,-0.170689 2.10137,-0.174924 3.41077,-0.02055 6.79713,1.11955036 9.88144,2.48357546 0.85318,0.377317 1.67523,0.8214297 2.51285,1.2321444 4.48354,2.4350045 8.51934,5.5805377 12.81893,8.3133467 2.44895,1.413412 5.21417,2.49056 8.09643,2.325233 0.67202,-0.03855 1.33308,-0.187668 1.99962,-0.281503 6.56918,-1.922393 11.86111,-6.3897098 17.09888,-10.5974387 2.24806,-1.8004668 2.58136,-2.1803215 4.987,-3.67739086 0.76893,-0.47852266 1.53233,-0.97967532 2.36204,-1.34276398 0.93078,-0.40732266 1.90532,-0.72237966 2.8938,-0.95725036 2.7709,-0.6583767 3.81976,-0.5125477 6.65988,-0.5486957 4.67011,0.2094217 9.14789,1.63724806 13.28582,3.7700247 2.30454,1.1878171 3.93144,2.3021205 6.10682,3.6965619 4.16435,2.4863825 7.99798,5.821744 12.30587,8.058747 0.52269,0.271421 1.07244,0.487218 1.60864,0.730827 1.25408,0.341416 1.7979,0.63803 3.13275,0.395861 1.46659,-0.266061 2.97881,-1.080729 4.23995,-1.797832 1.99993,-1.137181 2.96542,-1.875308 4.86299,-3.1965274 3.29906,-2.6255105 1.67814,-1.3181024 4.86402,-3.9206979 0,0 -0.25612,-3.7211999 -0.25612,-3.7211999 v 0 c -3.16846,2.6113895 -1.55721,1.3071444 -4.83518,3.9110469 -1.93553,1.3488481 -2.7735,2.0035238 -4.81457,3.1530992 -1.20187,0.6769127 -2.66729,1.4580361 -4.0654,1.7103841 -1.25603,0.226708 -1.77843,-0.05579 -2.96559,-0.376046 -0.52466,-0.2347707 -1.06119,-0.4446727 -1.574,-0.7043154 -4.35533,-2.2051398 -8.14229,-5.387079 -12.29413,-7.9232285 -2.13812,-1.35830132 -3.89493,-2.5433646 -6.15773,-3.7002697 -4.18756,-2.1409928 -8.73167,-3.5766032 -13.44837,-3.7831919 -2.88486,0.02956 -3.94999,-0.113856 -6.77162,0.5201937 -1.01298,0.2276267 -2.01847,0.5206367 -2.97267,0.9298244 -0.84336,0.3616487 -1.60991,0.8830904 -2.38826,1.3690911 -2.55315,1.5942141 -2.64522,1.7986121 -5.01576,3.73672674 -5.14403,4.19058656 -10.3986,8.58959716 -16.90198,10.44064456 -0.64399,0.08865 -1.28273,0.23307 -1.93196,0.265945 -2.80905,0.142241 -5.50386,-0.945263 -7.89632,-2.3024071 -4.32063,-2.6999185 -8.37891,-5.8129457 -12.86356,-8.24383446 -0.84725,-0.41145366 -1.67964,-0.85503532 -2.54175,-1.23436132 -3.14182,-1.38238502 -6.58222,-2.54843942 -10.05353,-2.54513142 -0.72001,6.85e-4 -1.43559,0.112926 -2.15339,0.169389 -1.87072,0.4105197 -2.22794,0.4268647 -4.04269,1.0758454 -3.20889,1.14754036 -6.16891,2.868237 -9.12045,4.5450051 -0.83308,0.5156347 -1.67788,1.0128054 -2.49925,1.5469041 -3.60038,2.3411538 -6.96613,4.9933633 -11.12441,6.3334827 -1.83942,0.487962 -2.3654,0.745926 -4.2562,0.796369 -2.67555,0.07138 -5.32112,-0.73414 -7.7109,-1.8704127 -4.00657,-2.1421115 -7.73214,-4.7441843 -11.58651,-7.1429038 -2.32318,-1.41964606 -4.64249,-2.89107538 -7.10758,-4.0588024 -2.38946,-1.1319014 -4.91891,-1.9442641 -7.50245,-2.4928258 -2.07579,-0.2937827 -3.16651,-0.5188177 -5.27435,-0.5321017 -3.22856,-0.02035 -6.38712,0.7073067 -9.3153,2.0524298 -0.65409,0.353783 -1.32557,0.6771427 -1.96226,1.0613474 -0.75965,0.458395 -3.05902,2.09027494 -3.75614,2.56709964 -2.15643,1.47498506 -4.34894,2.89785816 -6.61167,4.20560756 -0.77197,0.4011177 -1.52733,0.8359474 -2.3159,1.2033531 -3.56852,1.6626301 -6.73357,2.2616688 -10.60023,1.3262114 -0.58409,-0.195653 -1.17681,-0.3672387 -1.75227,-0.5869597 -4.26497,-1.6284081 -8.1,-4.1852746 -11.99375,-6.51865936 -3.20604,-1.98404964 -6.40829,-3.99143744 -9.73398,-5.77253454 -1.10167,-0.5900107 -2.20038,-1.1919374 -3.34602,-1.6912421 -2.22669,-0.9704584 -3.60176,-1.2308961 -5.922138,-1.8300548 -0.883862,-0.117609 -1.760945,-0.310404 -2.651591,-0.3528287 -0.715674,-0.03409 -1.433806,0.04474 -2.145861,0.1243137 -2.667402,0.29808 -5.223282,1.1931564 -7.599373,2.4157958 -5.411533,2.7494395 -10.765234,5.78858866 -16.67669,7.33658664 C 69.113984,1.0377551 68.098251,1.2998851 67.068514,1.4939211 61.225956,2.5948492 55.255262,2.7407122 49.331662,2.4430675 46.20697,2.2659425 44.801104,2.2267475 41.700016,1.8915128 35.992826,1.2745511 30.352015,0.14012478 24.848393,-1.4945672 15.521113,-4.3734894 6.2137511,-7.5790826 -2.3492938,-12.331258 c -3.8715659,-2.184179 -7.6813122,-4.47919 -11.5781082,-6.615656 z" /><path
       style="mix-blend-mode:normal;fill:#4d9ac2;fill-opacity:1;stroke:none;stroke-width:1.32292;stroke-linecap:round;stroke-linejoin:round;stroke-dasharray:none;stroke-opacity:1;filter:url(#filter34)"
       id="path25"
       d="m -9.6402,57.169285 c 2.1256162,-0.333145 4.1968732,-0.962274 6.2147415,-1.697546 2.0568609,-0.776136 3.98989952,-1.827826 6.0390926,-2.619563 1.3705098,-0.492905 2.9028863,-1.056118 4.2160194,-0.09267 0.2076776,0.152374 0.3716674,0.356727 0.5575012,0.535091 0.6988029,0.71701 1.440431,2.0921 2.3962971,2.489605 0.2015781,0.08383 0.4279742,0.0865 0.6419612,0.129746 0.255006,-0.01558 0.516249,0.01143 0.765017,-0.04675 0.719921,-0.16837 1.881639,-0.728715 2.515672,-1.002262 1.551508,-0.669388 3.104137,-1.323272 4.681367,-1.929363 3.576882,-1.157039 6.337404,-0.207235 9.670694,1.142433 1.936371,0.716124 3.581106,2.090182 5.599199,2.596304 1.320414,0.33115 1.543323,0.229719 2.932891,0.202089 2.863291,-0.311172 5.493681,-1.529562 8.087915,-2.698489 3.353843,-1.511194 1.590286,-0.732943 5.10436,-2.250506 4.167836,-1.588479 8.46518,-2.98705 12.908264,-3.553039 0.693309,-0.08832 1.392987,-0.116186 2.089481,-0.174278 3.459387,-0.141399 6.131234,1.444207 8.979281,3.152042 1.052049,0.562231 2.096648,1.422614 3.338269,1.522063 0.767305,0.06146 1.308386,-0.120552 2.057834,-0.283191 1.223171,-0.360244 2.408412,-0.835187 3.63288,-1.191324 0.749387,-0.217961 1.676826,-0.504582 2.477825,-0.397777 0.477065,0.06361 0.918686,0.287343 1.378032,0.431014 2.6406,1.449522 4.571032,3.891658 7.218548,5.330095 0.432829,0.235164 0.898266,0.40459 1.347398,0.606885 0.504484,0.07757 1.00306,0.228013 1.513451,0.23272 2.298637,0.02119 4.593299,-1.306582 6.588009,-2.286209 0.71827,-0.352753 3.78767,-1.927831 4.59124,-2.339287 2.09301,-0.967643 4.21647,-2.367698 6.63433,-2.043962 1.45476,0.194786 2.13488,0.641347 3.46104,1.258885 1.76246,0.781415 3.24684,2.065194 4.95701,2.935054 0.48003,0.244166 0.96786,0.499645 1.49376,0.615728 1.55583,0.343419 2.10111,-0.0328 3.62906,-0.461722 0.73989,-0.38123 1.49849,-0.728146 2.21966,-1.143693 1.59751,-0.920496 3.44158,-2.217936 4.95475,-3.259619 2.00564,-1.380715 4.00836,-2.744232 6.06732,-4.044119 0.52312,-0.24161 1.00625,-0.60262 1.56937,-0.724829 2.66565,-0.578503 4.96394,2.31739 6.36937,4.118589 0.90338,1.08394 1.5249,3.039962 3.13779,3.283974 1.08603,0.164304 1.82499,-0.260429 2.83263,-0.612648 1.86419,-0.855885 3.62671,-1.907024 5.38718,-2.953679 0.74468,-0.44273 1.97696,-1.249457 2.843,-1.527754 0.42063,-0.13517 0.87158,-0.145442 1.30737,-0.218162 0.45973,0.102899 0.93935,0.139943 1.37919,0.308694 1.88886,0.724683 3.44019,2.300396 4.92374,3.603424 2.57282,2.259759 0.91653,0.884497 3.48339,2.944244 0.64978,0.284332 1.26134,0.680588 1.94932,0.852995 3.75806,0.941766 8.3473,-1.719133 11.61524,-3.307823 0.59646,-0.28303 3.14231,-1.537033 3.85329,-1.701059 3.85429,-0.889209 8.91473,0.511966 12.66359,1.424194 2.0208,0.444412 3.94507,1.217956 5.93528,1.765162 1.44869,0.39832 2.77071,0.772321 4.28512,0.553291 1.9003,-0.274838 2.2423,-0.903478 3.80587,-2.10245 3.19688,-3.218122 0.61374,-0.552463 3.57992,-3.789627 0.83707,-0.91354 1.8229,-2.125276 2.99966,-2.680753 1.39905,-0.660406 1.94334,-0.298241 3.41245,-0.02185 3.93083,1.457108 7.00741,4.389493 10.42263,6.709852 0.52899,0.359405 1.08324,0.680135 1.62486,1.020201 0.59086,0.118079 1.17128,0.392973 1.77257,0.354235 1.34026,-0.08634 3.1506,-1.113777 4.24189,-1.730438 2.82275,-1.59507 1.53325,-1.04811 4.29677,-2.651586 0.70452,-0.408783 1.43526,-0.770612 2.15289,-1.155919 1.84067,-0.69383 2.5713,-1.169384 4.57923,-1.14286 3.34275,0.04416 6.44867,1.850432 9.35533,3.284236 1.07431,0.440595 2.66832,1.216244 3.89305,1.278437 2.69981,0.137102 5.43005,-1.764003 7.66723,-3.037339 0.59962,-0.291156 1.16599,-0.664308 1.79893,-0.873464 3.64903,-1.205847 7.38391,0.86909 10.55431,2.432849 1.16943,0.589711 2.32478,1.206823 3.49141,1.80199 0.72168,0.368178 1.69902,0.929957 2.53553,1.04685 1.26831,0.177226 1.59245,-0.161631 2.77455,-0.652814 2.00846,-1.258811 3.74891,-2.87772 5.66082,-4.267639 1.01324,-0.736611 2.37111,-1.745036 3.66217,-1.992287 0.74322,-0.142327 1.51331,-0.01788 2.26997,-0.02684 2.61176,0.373544 5.02163,1.427522 7.4254,2.452682 1.60658,0.685165 2.49319,1.231495 4.23899,1.450089 0.67773,0.08486 1.36605,-0.0019 2.04907,-0.003 2.33587,-0.413591 4.40137,-1.550971 6.42779,-2.723814 1.4632,-0.846867 2.03269,-1.391375 3.65254,-1.89339 0.6123,-0.189759 1.25879,-0.243194 1.88818,-0.364789 2.68599,-0.05493 5.14543,0.99219 7.62322,1.872861 1.73464,0.61653 1.43084,0.501664 3.15505,1.006682 0.51774,0.07174 1.03204,0.175072 1.55316,0.215233 0.98526,0.07593 2.25293,0.0067 3.23181,-0.04724 1.80419,-0.09942 3.60637,-0.236619 5.41057,-0.338542 0.58393,-0.02811 1.16784,-0.05622 1.75178,-0.08433 0,0 -0.0193,-3.844446 -0.0193,-3.844446 v 0 c -0.58488,0.03026 -1.1698,0.06053 -1.75469,0.0908 -1.23457,0.07285 -2.46935,0.142021 -3.70385,0.215982 -1.60829,0.09636 -3.25053,0.270296 -4.86299,0.144563 -0.50239,-0.03917 -0.99814,-0.13939 -1.49722,-0.209084 -1.74593,-0.505754 -1.36631,-0.371644 -3.1315,-0.984578 -2.54622,-0.884137 -5.07958,-1.912324 -7.82841,-1.863241 -1.9218,0.36372 -2.09368,0.252389 -3.86271,1.173501 -0.62672,0.326327 -1.19068,0.761675 -1.7988,1.121516 -1.96077,1.160277 -3.96631,2.274914 -6.23649,2.689659 -0.65159,0.0052 -1.30794,0.09456 -1.95474,0.01561 -1.66026,-0.20262 -2.64885,-0.769196 -4.18282,-1.40925 -2.45751,-1.025387 -4.9194,-2.080704 -7.57656,-2.476 -0.80515,0.0011 -1.62311,-0.139954 -2.41551,0.003 -1.3376,0.241231 -2.71524,1.261665 -3.76415,2.025409 -1.87762,1.367144 -3.58259,2.966852 -5.5666,4.189021 -1.04835,0.459539 -1.36088,0.789807 -2.49846,0.628909 -0.75379,-0.106619 -1.83049,-0.68245 -2.47549,-0.998246 -0.68792,-0.336807 -2.9078,-1.453336 -3.49946,-1.750293 -3.29372,-1.597681 -7.12512,-3.683765 -10.8989,-2.465184 -0.64275,0.20755 -1.21658,0.587229 -1.82486,0.880843 -2.12651,1.22242 -4.80674,3.13496 -7.38058,3.015345 -1.21229,-0.05634 -2.74386,-0.796973 -3.8092,-1.22745 -2.98163,-1.449337 -6.16047,-3.242707 -9.57474,-3.291173 -2.06649,-0.02933 -2.82465,0.45202 -4.71779,1.153321 -0.72621,0.386652 -1.46681,0.747422 -2.17865,1.159958 -3.91342,2.267979 -0.28262,0.38459 -4.26707,2.643087 -0.9361,0.530603 -2.79551,1.587404 -3.98348,1.667592 -0.55537,0.03749 -1.09067,-0.223169 -1.63601,-0.334754 -0.53384,-0.329501 -1.07964,-0.640368 -1.60152,-0.988507 -0.95267,-0.635508 -3.00694,-2.173518 -3.88342,-2.802663 -1.37346,-0.985874 -3.011,-2.178894 -4.51314,-2.972932 -0.70587,-0.373129 -1.46134,-0.643734 -2.19201,-0.965599 -1.60323,-0.297561 -2.18918,-0.68212 -3.72092,0.01987 -1.24604,0.571066 -2.20136,1.772859 -3.08032,2.746084 -2.99485,3.316031 -0.31216,0.508177 -3.51085,3.778086 -1.42542,1.120132 -1.80651,1.756984 -3.55721,2.047226 -1.46589,0.243025 -2.7616,-0.104714 -4.17439,-0.469915 -1.9994,-0.516835 -3.93736,-1.256234 -5.95732,-1.700782 -3.73234,-0.90969 -9.06729,-2.386909 -12.89953,-1.559922 -0.72747,0.156988 -3.26897,1.444209 -3.87782,1.740159 -3.11122,1.542391 -7.69032,4.212167 -11.28304,3.273092 -0.6556,-0.171366 -1.23467,-0.558851 -1.85201,-0.838274 -2.40766,-1.927638 -1.05003,-0.796076 -3.46891,-2.922768 -1.54345,-1.357011 -3.13137,-2.972554 -5.11295,-3.694755 -0.48797,-0.177845 -1.01681,-0.212307 -1.52521,-0.318461 -0.47139,0.0778 -0.95886,0.08861 -1.41415,0.233392 -0.92508,0.294172 -2.07871,1.087054 -2.87809,1.572948 -1.72628,1.049287 -3.46542,2.084797 -5.31101,2.915145 -0.83451,0.290478 -1.62023,0.72077 -2.53948,0.556548 -1.29022,-0.2305 -2.173,-2.327111 -2.95577,-3.217217 -1.59697,-1.953633 -3.98841,-4.73728 -6.88168,-4.114554 -0.58213,0.125294 -1.08039,0.501076 -1.62058,0.751615 -1.84408,1.202023 -1.82769,1.174954 -3.75981,2.510317 -2.38025,1.645076 -4.70579,3.393228 -7.22379,4.828899 -0.69775,0.397833 -1.43025,0.731378 -2.14537,1.097066 -1.41604,0.400307 -1.93346,0.759325 -3.37253,0.430295 -0.50603,-0.115697 -0.97484,-0.363374 -1.43777,-0.598184 -1.71923,-0.872024 -3.23521,-2.121892 -4.99914,-2.917499 -1.40587,-0.643274 -2.08532,-1.087782 -3.62485,-1.289468 -2.53636,-0.332277 -4.63824,1.058119 -6.81687,2.115325 -1.38399,0.726826 -3.18917,1.685779 -4.57637,2.366669 -1.93713,0.950814 -4.120275,2.205177 -6.360835,2.171009 -0.476078,-0.0072 -0.939588,-0.154866 -1.409382,-0.232296 -0.431057,-0.197765 -0.8777,-0.364593 -1.293173,-0.593294 -2.663549,-1.466167 -4.624051,-3.926967 -7.323518,-5.340011 -0.505132,-0.15031 -0.992854,-0.382363 -1.515396,-0.450932 -1.846323,-0.242284 -4.36935,1.136383 -6.170393,1.571397 -0.659616,0.14056 -1.206616,0.318082 -1.883862,0.25603 -1.189392,-0.108974 -2.195026,-0.962666 -3.222614,-1.469639 -2.990411,-1.737847 -5.611691,-3.249604 -9.219518,-3.088037 -0.706808,0.06477 -1.417018,0.09945 -2.120421,0.1943 -4.47113,0.602903 -8.787664,2.029256 -12.995264,3.605485 -2.816913,1.192977 -2.403173,1.002681 -5.113086,2.207119 -2.548493,1.132695 -5.121283,2.338491 -7.934124,2.616902 -1.326258,0.01574 -1.540203,0.11063 -2.799199,-0.215736 -1.995249,-0.517226 -3.652393,-1.857902 -5.579769,-2.551526 -3.49741,-1.402897 -6.20509,-2.329582 -9.959053,-1.160317 -1.57953,0.607232 -3.135794,1.264576 -4.697684,1.915867 -0.524167,0.218572 -1.751723,0.784153 -2.380766,0.930793 -0.213024,0.04966 -0.436825,0.02379 -0.655238,0.03567 -0.160843,-0.04066 -0.333923,-0.04822 -0.48253,-0.121979 C 9.0517743,51.358609 8.4825773,50.06655 7.6715206,49.376864 7.4519773,49.196196 7.2531879,48.986836 7.0128904,48.834857 5.5542039,47.912292 3.9559515,48.396852 2.4713291,48.956346 c -2.05538971,0.776144 -3.9900336,1.816491 -6.0338084,2.622494 -1.9790619,0.73079 -4.0159966,1.374092 -6.1173106,1.629021 z" /><path
       style="mix-blend-mode:normal;fill:#4d9ac2;fill-opacity:1;stroke:none;stroke-width:1.32292;stroke-linecap:round;stroke-linejoin:round;stroke-dasharray:none;stroke-opacity:1;filter:url(#filter35)"
       id="path26"
       d="m 345.41793,52.535737 c -2.70166,0.01503 -5.40811,0.155634 -8.1098,0.102675 -1.13776,-0.0223 -2.28036,-0.01667 -3.41069,-0.14826 -1.45708,-0.169632 -2.89054,-0.502377 -4.33583,-0.753567 -8.18557,-1.935306 -15.92577,-5.261785 -23.53186,-8.780635 -0.7721,-0.312547 -2.57619,-1.186373 -3.55502,-1.096261 -1.32336,0.121833 -2.64086,1.211577 -3.56936,1.994514 -0.89088,0.751189 -2.99651,2.872975 -3.80669,3.676316 -1.83452,1.71422 -4.81949,5.211017 -7.57095,5.272289 -0.45815,0.01021 -0.90424,-0.149543 -1.35638,-0.224314 -2.15165,-1.042559 -3.82464,-2.790145 -5.68717,-4.246491 -0.38378,-0.30008 -0.75663,-0.621546 -1.18062,-0.861494 -0.36791,-0.208214 -0.78457,-0.315119 -1.17684,-0.472678 -0.41051,0.01445 -0.83267,-0.05491 -1.23151,0.04334 -1.55016,0.381852 -2.72042,1.818664 -3.75478,2.911912 -0.66995,0.708115 -1.83459,1.996596 -2.50253,2.731598 -1.10329,1.137128 -2.35697,2.159658 -4.04088,2.148519 -2.17058,-0.01437 -4.20505,-1.299165 -6.04436,-2.266349 -2.17917,-1.201195 -4.25484,-2.594906 -6.45354,-3.761584 -1.16617,-0.618799 -2.01836,-1.088173 -3.34337,-1.188077 -0.48938,-0.0369 -0.97841,0.07839 -1.46761,0.117589 -0.46834,0.200843 -0.96762,0.341058 -1.40501,0.602528 -1.6187,0.96765 -2.88369,2.531255 -4.18857,3.857532 -1.40548,1.428533 -0.91131,0.956511 -2.36501,2.179704 -0.42718,0.235087 -0.80978,0.581967 -1.28152,0.70526 -1.1579,0.302622 -2.59549,-0.08043 -3.67696,-0.369763 -2.05619,-0.550104 -4.02641,-1.394302 -6.04323,-2.067775 -1.29831,-0.114191 -1.84659,-0.330224 -3.07619,0.181901 -1.9563,0.814785 -3.62821,3.231685 -4.94337,4.824119 -1.25198,1.255718 -2.57013,3.088278 -4.51818,3.223374 -1.38025,0.09572 -1.99764,-0.344006 -3.30014,-0.855096 -2.05307,-0.946452 -3.97835,-2.135016 -5.93244,-3.264123 -0.68919,-0.398221 -2.14635,-1.290711 -2.96901,-1.555374 -0.40456,-0.130154 -0.83864,-0.138247 -1.25796,-0.207372 -0.40152,0.114741 -0.8352,0.149402 -1.20456,0.344225 -1.56673,0.826405 -2.54629,2.509422 -3.72296,3.751739 -1.49872,1.582325 -1.40017,1.368872 -3.20024,2.536589 -0.62557,0.182446 -1.22936,0.472665 -1.8767,0.547341 -3.9073,0.45075 -8.28289,-2.790727 -11.3563,-4.850206 -1.44016,-0.909543 -3.00567,-1.90481 -4.79719,-1.439561 -1.54997,0.402518 -2.68565,1.714505 -3.76816,2.788798 -1.09822,0.99141 -2.43693,3.522694 -3.86231,3.934359 -0.96902,0.279863 -1.49813,-0.138028 -2.37941,-0.496387 -2.01325,-1.268206 -3.70065,-2.955102 -5.46529,-4.530275 -0.97623,-0.871413 -2.19786,-2.089626 -3.47907,-2.581656 -0.51042,-0.196022 -1.08085,-0.16609 -1.62127,-0.249135 -0.51902,0.148299 -1.0625,0.228585 -1.55705,0.444892 -1.09951,0.480915 -1.81273,1.177983 -2.73092,1.916367 -0.74041,0.595423 -1.49026,1.323398 -2.45463,1.56914 -0.41486,0.105717 -0.85575,0.02914 -1.28362,0.04371 -2.94127,-0.550172 -4.98717,-3.473038 -7.75461,-4.308409 -0.47061,-0.142058 -0.97492,-0.127103 -1.46238,-0.190654 -0.46378,0.105027 -0.94586,0.148757 -1.39135,0.315077 -2.04302,0.762727 -3.79235,2.72262 -5.5292,4.031258 -0.32335,0.176 -0.62772,0.39257 -0.97005,0.528005 -2.34655,0.928354 -4.66479,-0.330417 -6.75858,-1.310259 -1.37669,-0.669359 -2.7054,-1.23956 -4.26549,-0.86822 -1.70928,0.40685 -3.07539,1.61312 -4.4203,2.658615 -1.30663,0.995241 -3.43045,3.442917 -5.21027,3.421814 -1.59632,-0.01892 -3.76596,-1.082585 -5.11305,-1.623692 -2.90705,-1.299197 -5.67087,-2.876971 -8.43521,-4.447678 -0.969692,-0.550981 -2.611853,-1.563753 -3.753765,-1.899128 -0.485944,-0.142719 -1.004298,-0.132014 -1.506448,-0.19802 -0.529291,0.169693 -1.081955,0.278879 -1.58787,0.509082 -0.55019,0.250349 -1.049345,0.601078 -1.560613,0.923552 -1.465183,0.924134 -1.853023,1.321776 -3.378816,2.162535 -1.911911,1.05352 -1.71436,0.872363 -3.784664,1.463154 -0.697021,0.04743 -1.392655,0.160028 -2.091063,0.142295 -1.693468,-0.04299 -3.179096,-0.444582 -4.813051,-0.874217 -2.38805,-0.627915 -4.739664,-1.397178 -7.099083,-2.122776 -0.613643,-0.140401 -1.214816,-0.355981 -1.840926,-0.421204 -2.885564,-0.300596 -5.415446,1.421252 -7.742211,2.870491 -0.383524,0.207185 -0.720754,0.548952 -1.150575,0.621557 -1.050652,0.177474 -2.820016,-0.414626 -3.720666,-0.738362 -0.695883,-0.250132 -1.370769,-0.55571 -2.048251,-0.852086 -0.643543,-0.281527 -1.252299,-0.646001 -1.914138,-0.881319 -0.590648,-0.210005 -1.217547,-0.299074 -1.826321,-0.448611 -0.595961,0.0444 -1.205135,7.93e-4 -1.78788,0.133191 -1.814692,0.412501 -3.309778,1.606529 -4.84493,2.570832 -0.4747,0.29818 -0.913339,0.685778 -1.447287,0.856519 -0.638665,0.204227 -1.331082,0.163161 -1.996625,0.244743 C 37.540157,60.856753 36.70106,60.795214 35.89008,60.59484 33.80536,60.079752 31.935356,59.244766 29.999733,58.330316 27.2713,57.041314 24.638322,55.550088 21.957229,54.167158 20.39673,53.833524 19.589591,53.464089 18.011825,53.835225 c -2.051718,0.482621 -3.635418,2.065187 -5.45338,3.013456 -0.631226,0.329253 -1.309901,0.558192 -1.964851,0.837285 -0.7288456,0.125052 -1.4498402,0.310877 -2.1865373,0.375155 -3.1677747,0.276389 -6.4989314,-0.582496 -9.6058476,-1.131165 -0.4637327,-0.07923 -0.9274654,-0.158464 -1.3911981,-0.237697 0,0 -0.062948,3.874733 -0.062948,3.874733 v 0 c 0.4627309,0.0726 0.9254617,0.145206 1.3881926,0.217808 3.96663,0.670076 8.0007619,1.631106 12.0097284,0.706438 0.675335,-0.279633 1.375832,-0.504913 2.026004,-0.838899 1.734079,-0.890778 3.34183,-2.483125 5.26828,-2.976949 1.493568,-0.38286 2.251976,-0.04018 3.741065,0.258562 2.69761,1.344181 5.34126,2.80603 8.064828,4.096914 1.953924,0.926094 3.880339,1.799608 5.983671,2.336673 0.844492,0.215633 1.718913,0.289832 2.57837,0.43475 0.719746,-0.07158 1.465704,-0.0094 2.159241,-0.214728 0.544647,-0.161266 0.991362,-0.555927 1.471041,-0.860155 1.985753,-1.259441 3.81272,-2.804422 6.312897,-2.709315 0.584925,0.140814 1.187117,0.22311 1.75477,0.422436 0.66526,0.233601 1.28048,0.591051 1.927754,0.870652 0.690774,0.298389 1.377553,0.609184 2.085885,0.8631 1.014206,0.363558 2.875896,0.972846 4.023921,0.806717 0.440594,-0.06376 0.785145,-0.419883 1.177718,-0.629828 2.224268,-1.429668 4.645401,-3.178333 7.439393,-2.90722 0.616008,0.05978 1.209424,0.263535 1.814134,0.395303 2.371349,0.694256 4.732896,1.436026 7.119596,2.076125 1.773351,0.475604 3.102338,0.871786 4.928418,0.924319 0.72481,0.02085 1.44739,-0.09053 2.171086,-0.135792 2.109814,-0.586983 1.948926,-0.415039 3.88897,-1.465694 1.327123,-0.718722 2.113108,-1.332886 3.377607,-2.139886 0.486556,-0.310515 0.95781,-0.651785 1.47737,-0.903214 0.45012,-0.217826 0.943689,-0.331163 1.415537,-0.496744 0.466346,0.05378 0.947113,0.03434 1.399042,0.161348 1.104506,0.31042 2.783819,1.295746 3.716854,1.807588 2.796494,1.534097 5.581214,3.093884 8.482734,4.426228 1.4664,0.609386 3.65765,1.715897 5.36798,1.765901 1.8808,0.05499 4.01086,-2.37821 5.35486,-3.452199 1.27162,-1.004663 2.57947,-2.203342 4.19941,-2.616756 1.48107,-0.377978 2.75561,0.232897 4.06384,0.851845 2.21931,1.017558 4.63689,2.262111 7.11601,1.34765 0.36277,-0.133811 0.68704,-0.354952 1.03056,-0.532429 0.30962,-0.230677 0.62916,-0.44862 0.92887,-0.692036 1.42833,-1.160034 2.69336,-2.642508 4.44122,-3.351303 0.39877,-0.161711 0.83389,-0.212807 1.25084,-0.319212 0.44761,0.05564 0.91126,0.03579 1.34283,0.166923 2.7738,0.842849 4.92764,3.873498 7.93687,4.336884 0.48066,-0.01728 0.97449,0.06124 1.442,-0.05181 1.90504,-0.460687 3.31347,-2.630246 5.1271,-3.494468 0.4383,-0.208859 0.92442,-0.297243 1.38664,-0.445865 0.49017,0.0699 1.00846,0.03178 1.47053,0.209693 1.22768,0.472694 2.47793,1.694452 3.4086,2.521431 1.81051,1.608807 3.53036,3.344667 5.59815,4.635238 1.05239,0.403119 1.58451,0.8196 2.72322,0.52142 1.58936,-0.416184 2.81773,-2.873785 3.96737,-3.982903 0.99472,-1.015055 2.0676,-2.325404 3.49683,-2.751322 1.67855,-0.500214 3.18514,0.515479 4.54411,1.335307 3.21722,2.096989 7.63941,5.329952 11.68339,4.894614 0.68384,-0.07362 1.32468,-0.37075 1.98702,-0.556122 1.79557,-1.126191 1.82782,-0.995582 3.31458,-2.534865 1.11641,-1.155851 2.0946,-2.830547 3.50922,-3.670416 0.31032,-0.18424 0.68355,-0.231817 1.02532,-0.347726 0.38451,0.06004 0.78242,0.063 1.15354,0.180136 0.80322,0.253529 2.26728,1.118055 2.93645,1.495848 1.98132,1.118593 3.92468,2.310578 5.98821,3.276675 1.4282,0.563922 2.02693,1.008964 3.5385,0.919011 2.05953,-0.122563 3.44082,-1.931508 4.76176,-3.277923 1.1957,-1.462061 2.96309,-3.983016 4.69655,-4.777303 1.13641,-0.520716 1.64061,-0.31659 2.863,-0.225735 0.60052,0.192956 1.2058,0.371721 1.80158,0.578864 1.90722,0.663109 2.30718,0.936863 4.28089,1.471729 1.19149,0.322889 2.68202,0.720664 3.94947,0.419989 0.49809,-0.118161 0.90679,-0.47534 1.36018,-0.71301 1.49466,-1.24524 0.98264,-0.754309 2.40378,-2.216663 1.2653,-1.301988 2.49223,-2.824398 4.04309,-3.808826 0.39643,-0.251642 0.85137,-0.396369 1.27705,-0.594555 0.45059,-0.04458 0.89991,-0.162661 1.35178,-0.133755 1.26526,0.08094 2.10999,0.547843 3.22838,1.128196 2.20898,1.146276 4.29838,2.515196 6.4669,3.732657 1.93009,1.019818 4.01971,2.330149 6.29444,2.35575 1.77126,0.01992 3.12389,-0.972611 4.29469,-2.179106 0.93065,-1.036921 1.5263,-1.71268 2.48918,-2.734847 0.9381,-0.995894 2.06216,-2.444882 3.46352,-2.838812 0.34211,-0.09617 0.70986,-0.03503 1.06477,-0.05255 0.36144,0.149342 0.74498,0.253585 1.08429,0.448022 0.41354,0.236985 0.78165,0.546248 1.15898,0.837488 1.9209,1.482733 3.64363,3.27615 5.89129,4.27776 0.49916,0.07522 0.99287,0.239157 1.49751,0.22566 2.97948,-0.07968 5.80795,-3.543556 7.78386,-5.394624 0.8074,-0.799809 2.86978,-2.874243 3.75812,-3.633081 0.74488,-0.636296 2.13143,-1.808678 3.25376,-1.932212 0.93221,-0.102606 2.74257,0.728525 3.46694,1.005594 7.69496,3.337017 15.47014,6.569429 23.62528,8.622067 1.46085,0.281109 2.90791,0.647022 4.38254,0.843333 1.13498,0.151093 2.28504,0.156421 3.42931,0.196617 2.70092,0.09487 5.40864,-0.01005 8.1098,0.102671 z" /><path
       style="mix-blend-mode:normal;fill:#4d9ac2;fill-opacity:1;stroke:none;stroke-width:1.32292;stroke-linecap:round;stroke-linejoin:round;stroke-dasharray:none;stroke-opacity:1;filter:url(#filter36)"
       id="path27"
       d="m -8.6276031,75.414729 c 4.1881091,-3.438197 8.53088944,-6.686436 12.8597714,-9.944783 1.4718252,-0.93894 3.0517923,-2.372883 4.9431977,-2.316525 1.948012,0.05805 3.922907,1.495547 5.500668,2.470209 2.073794,1.252267 4.018581,2.980187 6.421889,3.594052 1.377811,0.35193 1.658401,0.200602 3.045898,0.05998 1.46421,-0.363553 2.842837,-0.977535 4.182827,-1.658358 1.009542,-0.512929 1.551462,-0.903261 2.653964,-1.25907 0.56578,-0.182591 1.156118,-0.277796 1.73418,-0.416695 0.701744,-0.0064 1.405663,-0.07477 2.105234,-0.01921 1.903124,0.151145 3.532513,0.598768 5.366777,1.121412 2.546133,0.725477 5.009451,1.659372 7.490962,2.573682 1.486345,0.523507 2.98018,1.100904 4.583652,1.066532 1.408121,-0.03019 2.77681,-0.546999 4.111109,-0.935508 0.72942,-0.09494 1.453492,-0.250402 2.188258,-0.284829 4.583438,-0.214752 9.466286,1.08313 13.887471,2.186074 1.698784,0.405969 3.489825,0.787676 5.231072,0.352833 1.468604,-0.366755 2.796146,-1.27703 4.09789,-2.00846 1.204807,-0.568304 1.590982,-0.885023 2.969075,-0.976498 1.405186,-0.09327 2.70048,0.21993 4.053864,0.551275 1.806239,0.44222 2.865416,0.813004 4.63891,1.377651 0.585557,0.189749 3.379224,1.09623 4.069136,1.31548 1.12323,0.356954 1.833014,0.681225 3.023878,0.635391 1.20526,-0.04639 1.59314,-0.360926 2.65553,-0.861277 1.29631,-0.843888 2.34648,-1.982107 3.4892,-3.006992 0.52391,-0.469884 1.43721,-1.291794 2.14491,-1.532326 0.4187,-0.142309 0.87632,-0.119674 1.31448,-0.179512 3.23334,0.470112 5.86335,2.502667 8.76019,3.832979 0.339,0.04493 0.67665,0.167963 1.017,0.134784 1.57037,-0.153085 3.05021,-2.113444 4.15398,-3.136982 0.26667,-0.111022 0.51268,-0.303303 0.79999,-0.333071 1.22575,-0.126992 2.78394,1.151099 3.67624,1.797487 2.19818,1.592376 0.48603,0.525502 2.68289,1.801632 0.42758,0.121928 0.84139,0.311857 1.28273,0.365787 1.58677,0.193902 2.94709,-0.637159 4.33153,-1.235311 0.33803,-0.146047 0.68595,-0.268068 1.02892,-0.402103 0.39563,-0.03874 0.79107,-0.152918 1.18689,-0.116215 1.71257,0.158805 3.45709,1.13207 5.01558,1.785442 0.54064,0.226656 1.0671,0.501907 1.6346,0.648894 0.51198,0.132603 1.0507,0.12179 1.57605,0.182684 0.50826,-0.09957 1.03718,-0.124069 1.52478,-0.298694 1.59011,-0.569476 2.85046,-1.814062 3.97743,-3.010429 0.36913,-0.391861 0.70017,-0.819578 1.0828,-1.198263 0.34488,-0.341318 0.73064,-0.638678 1.09596,-0.958017 0.38799,-0.169119 0.74726,-0.433292 1.16398,-0.507352 2.15437,-0.382876 4.58664,2.076003 6.41352,2.891843 0.52641,0.23508 1.11013,0.311608 1.66519,0.467411 1.63176,0.05017 2.82196,-0.737487 4.13439,-1.567702 0.36763,-0.232555 0.70734,-0.518131 1.10524,-0.693949 1.16617,-0.515297 1.39673,-0.293441 2.67446,-0.128085 2.25625,0.7546 4.24045,2.080456 6.26494,3.2903 1.22344,0.731134 2.66876,1.687005 4.08891,2.050347 0.63546,0.162575 1.30542,0.129717 1.95814,0.194577 0.67093,-0.150051 1.36513,-0.219543 2.0128,-0.450157 0.74216,-0.26425 1.42591,-0.670708 2.12964,-1.024805 1.62712,-0.818722 4.05816,-2.186993 5.73877,-2.839067 2.98255,-1.157224 3.32149,-1.00784 6.43785,-1.396135 2.811,-0.123504 5.52961,0.46807 8.2118,1.230908 0.76151,0.21658 2.77088,0.932778 3.64723,1.031439 0.52031,0.05858 1.04672,-0.0314 1.57008,-0.04709 2.87021,-0.840139 5.48014,-2.354691 8.45635,-2.875171 2.5803,-0.451245 3.5779,-0.279175 6.22159,-0.197398 3.82962,0.474131 2.30807,0.200914 5.90045,0.959366 1.62307,0.342672 2.6992,0.718259 4.34724,0.632701 1.33156,-0.06913 2.08896,-0.424249 3.30978,-0.849905 2.15901,-1.035786 4.37409,-1.647151 6.79098,-1.462681 2.0049,0.153027 2.88335,0.487585 4.81701,1.008523 1.79931,0.621959 3.7092,1.182862 5.57541,0.435653 1.62232,-0.64956 2.65923,-2.042586 3.70254,-3.355309 0.72255,-0.931984 1.09144,-1.677812 2.29614,-2.099886 2.85647,-1.000774 7.19045,0.578278 9.89796,1.494589 2.07394,0.509293 3.96166,2.125241 6.19252,2.013963 2.04136,-0.101828 3.33618,-1.635988 4.64074,-2.977512 1.6379,-1.889925 3.28123,-4.209209 6.09243,-4.068549 1.71275,0.0857 2.92772,0.793454 4.47153,1.46009 4.49041,2.498617 0.38106,0.154403 4.71406,2.792619 1.21081,0.737225 2.41133,1.644573 3.91697,1.669516 1.3413,0.02222 2.16281,-0.657321 3.24141,-1.288688 1.31276,-0.938337 2.44745,-2.291191 4.15547,-2.505654 2.48893,-0.312518 5.44195,0.924914 7.71596,1.717632 3.48038,1.417582 2.14074,0.820492 5.40499,2.342367 1.03685,0.483412 2.70634,1.356826 3.88749,1.643071 1.16597,0.282572 1.58502,0.136136 2.69709,-0.0067 1.26251,-0.390449 2.33135,-1.157981 3.71094,-1.012354 1.12376,0.118626 1.81864,0.453697 2.89147,0.842097 2.12873,0.901808 4.06503,2.211805 6.21046,3.077694 0.94356,0.380815 1.51963,0.500576 2.48153,0.751089 1.52026,0.357634 3.04789,0.143875 4.57327,-0.02397 0,0 -0.0403,-3.915412 -0.0403,-3.915412 v 0 c -1.47952,0.14319 -2.95878,0.377624 -4.43518,0.04588 -0.99505,-0.251087 -1.43021,-0.328335 -2.41252,-0.72113 -2.15482,-0.861642 -4.11306,-2.145972 -6.24272,-3.06196 -1.35884,-0.498313 -2.7265,-1.087016 -4.21476,-0.887227 -0.94638,0.127045 -1.66788,0.776198 -2.57767,1.010028 -1.04156,0.16637 -1.40542,0.315238 -2.51137,0.06635 -1.18436,-0.266538 -2.81456,-1.084683 -3.85718,-1.554675 -3.47104,-1.564712 -1.74069,-0.822323 -5.43954,-2.315692 -2.3722,-0.843177 -5.36734,-2.115293 -7.96528,-1.840791 -1.76858,0.18687 -2.93521,1.473764 -4.24204,2.505258 -0.92602,0.583628 -1.75789,1.29718 -2.93952,1.298741 -1.42759,0.0019 -2.65753,-0.904666 -3.79865,-1.588526 -4.80147,-2.877413 0.22034,-0.03186 -4.77068,-2.807298 -1.64221,-0.709224 -2.8557,-1.422141 -4.67468,-1.519994 -3.01533,-0.162208 -4.60394,2.03667 -6.35162,4.083346 -1.17602,1.25126 -2.38887,2.826097 -4.27527,2.950834 -2.1886,0.144722 -4.08426,-1.465003 -6.12761,-1.925132 -2.84591,-0.950732 -7.22786,-2.525487 -10.23414,-1.588743 -1.38866,0.432705 -1.6294,1.060254 -2.43204,2.107745 -0.96345,1.270905 -1.9242,2.661263 -3.44403,3.332445 -1.78507,0.788316 -3.64113,0.217721 -5.3847,-0.35265 -0.81317,-0.216479 -1.6162,-0.475467 -2.43952,-0.649438 -3.60293,-0.76132 -6.10852,-0.564081 -9.40074,1.024075 -1.16421,0.433628 -1.88059,0.790385 -3.15683,0.879827 -1.6236,0.113784 -2.6814,-0.236085 -4.29271,-0.553564 -3.70177,-0.729366 -2.01663,-0.450196 -5.96185,-0.922097 -2.66957,-0.09961 -3.7142,-0.277016 -6.32768,0.147442 -2.94503,0.478306 -5.55915,1.893501 -8.37717,2.769799 -0.48862,0.02164 -0.97923,0.113995 -1.46586,0.0649 -0.84032,-0.08479 -2.9293,-0.771941 -3.64361,-0.962428 -2.73399,-0.729075 -5.50049,-1.300323 -8.35149,-1.161065 -3.16541,0.396568 -3.52191,0.252314 -6.55343,1.403495 -1.24973,0.474573 -4.4904,2.130499 -5.74796,2.749672 -0.67985,0.334732 -1.33271,0.734174 -2.04461,0.993867 -0.60776,0.221703 -1.25997,0.294273 -1.88995,0.441407 -0.61582,-0.0581 -1.24783,-0.02249 -1.84747,-0.174304 -1.38924,-0.351714 -2.83555,-1.291828 -4.03125,-2.001264 -2.08013,-1.234178 -4.10196,-2.62409 -6.42002,-3.389579 -1.37198,-0.181547 -1.67986,-0.425731 -2.94281,0.110646 -0.40332,0.171288 -0.74469,0.462169 -1.11171,0.701566 -1.21012,0.789342 -2.2785,1.60011 -3.80478,1.587791 -0.52073,-0.145153 -1.06869,-0.214804 -1.56219,-0.435462 -2.05936,-0.920805 -4.31887,-3.358731 -6.77679,-2.952845 -0.45645,0.07538 -0.85587,0.351571 -1.28381,0.527354 -0.38152,0.324541 -0.78738,0.622465 -1.14455,0.973622 -0.38257,0.376127 -0.70737,0.806913 -1.0693,1.202947 -1.05993,1.15983 -2.23663,2.40017 -3.74551,2.982502 -0.44634,0.17226 -0.93547,0.201158 -1.4032,0.301736 -0.49155,-0.0537 -0.99589,-0.0374 -1.47463,-0.161094 -0.56244,-0.145322 -1.08472,-0.416547 -1.6214,-0.638863 -1.65801,-0.686829 -3.38843,-1.658503 -5.20853,-1.842794 -0.4306,-0.0436 -0.86263,0.07164 -1.29395,0.107461 -0.35421,0.131725 -0.71488,0.247203 -1.06262,0.395176 -1.2976,0.552178 -2.55109,1.434883 -4.04726,1.255842 -0.40904,-0.04895 -0.79161,-0.22847 -1.18741,-0.342706 -2.15098,-1.25643 -0.43857,-0.191522 -2.65528,-1.777286 -1.11896,-0.800465 -2.55202,-2.003481 -4.05226,-1.874692 -0.33386,0.02866 -0.63019,0.228031 -0.94529,0.342045 -0.23742,0.214239 -0.48497,0.417756 -0.71225,0.642716 -0.81455,0.806201 -1.86954,2.331312 -3.10153,2.485704 -0.30019,0.03762 -0.60035,-0.0755 -0.90052,-0.113249 -2.96104,-1.343988 -5.68562,-3.3343 -8.97604,-3.815927 -0.48942,0.05811 -0.99814,0.02641 -1.46828,0.174334 -0.41995,0.132138 -0.78863,0.398058 -1.15001,0.64951 -1.62122,1.128069 -2.79227,2.814831 -4.45719,3.895958 -0.95698,0.483968 -1.34138,0.806291 -2.44213,0.862703 -1.097729,0.05625 -1.906068,-0.272352 -2.944602,-0.585153 -1.527911,-0.460197 -2.522326,-0.783018 -4.069414,-1.274384 -1.735034,-0.551265 -2.9088,-0.954296 -4.674682,-1.395833 -1.416084,-0.354073 -2.737469,-0.684062 -4.208946,-0.603779 -1.466649,0.08002 -1.817585,0.380571 -3.092911,0.967166 -1.257982,0.709747 -2.54109,1.616546 -3.95257,1.99904 -1.686627,0.457058 -3.428794,0.106821 -5.088353,-0.26154 -4.487117,-1.054341 -9.391679,-2.327939 -14.021128,-2.208046 -0.753912,0.01953 -1.500582,0.15272 -2.250871,0.229082 -1.287519,0.353967 -2.628914,0.867809 -3.979977,0.910209 -1.557618,0.04888 -3.021216,-0.506707 -4.477236,-0.978247 -2.498032,-0.877324 -4.978871,-1.78844 -7.525462,-2.519863 -1.8292,-0.525375 -3.5628,-1.015492 -5.464249,-1.190355 -0.727345,-0.06689 -1.460815,-0.0063 -2.191221,-0.0096 -0.599493,0.132109 -1.210831,0.218805 -1.798479,0.396325 -1.202248,0.363185 -1.604417,0.688109 -2.679853,1.247613 -0.926568,0.482052 -1.66673,0.848736 -2.65271,1.213385 -0.457543,0.169214 -0.928994,0.298137 -1.393491,0.447209 -1.318199,0.143102 -1.555172,0.288602 -2.867882,-0.05081 -2.36788,-0.612225 -4.290032,-2.317663 -6.34994,-3.5311 C 13.16056,60.770833 11.2285,59.361691 9.1021384,59.3027 7.1337678,59.24809 5.5035278,60.688894 3.9861406,61.697592 c -4.27282606,3.298473 -8.5489528,6.591543 -12.8919402,9.797417 z" /></g><g
     inkscape:groupmode="layer"
     id="layer3"
     inkscape:label="Rayons"
     style="display:inline"><rect
       style="display:inline;opacity:0.661485;mix-blend-mode:screen;fill:url(#radialGradient12);stroke-width:2.64583;stroke-linejoin:round"
       id="rect10"
       width="540.99561"
       height="78.953506"
       x="-64"
       y="249.04651"
       transform="rotate(90)" /><rect
       style="display:inline;opacity:0.661485;mix-blend-mode:screen;fill:url(#radialGradient12-1);stroke:none;stroke-width:2.64583;stroke-linejoin:round"
       id="rect10-2"
       width="463.99948"
       height="31.999998"
       x="-55.999741"
       y="384"
       transform="rotate(90)"
       inkscape:tile-cx="-136"
       inkscape:tile-cy="-120"
       inkscape:tile-w="32"
       inkscape:tile-h="544"
       inkscape:tile-x0="-152"
       inkscape:tile-y0="-392"
       inkscape:transform-center-x="-0.0045153173"
       inkscape:transform-center-y="230.00072"
       inkscape:label="Source rayon" /><path
       style="fill:none;fill-opacity:0.667279;stroke:none;stroke-width:0.264583;stroke-linecap:round;stroke-linejoin:round;stroke-dasharray:none;marker-start:url(#ColoredSquare);marker-mid:url(#marker936);marker-end:url(#ColoredSquare)"
       d="m -16,-16 c 4,0 9.5818216,0.131044 14.3338506,0.676879 6.1890804,0.7109 12.1765894,2.826135 18.3822084,3.374205 7.139496,0.630549 14.357345,-0.689916 21.501552,-0.115198 7.981451,0.64207 15.742422,3.0068375 23.691881,3.9670035 8.280684,1.0001727 16.661332,0.959647 24.953194,1.8624759 8.464664,0.9216437 16.820914,2.7029473 25.285494,3.6253853 8.20403,0.8940442 16.44811,1.4037586 24.68877,1.84739908 C 144.55097,-0.3465618 152.27574,0.11983224 160,0 c 8.68206,-0.1346912 17.32168,-1.2760288 25.99613,-1.6635193 9.39017,-0.4194616 18.79693,-0.3540725 28.18951,-0.7155294 9.69058,-0.372925 19.40107,-0.5741962 29.05461,-1.4991271 9.58008,-0.9178923 19.06754,-2.6300861 28.59143,-4.0143119 8.93972,-1.2993212 17.81803,-3.0625833 26.79997,-4.0277503 7.8648,-0.845123 15.79557,-0.905913 23.68023,-1.539445 6.41935,-0.515795 12.80964,-1.366994 19.23221,-1.841058 C 346.02326,-15.631358 351.625,-16 355,-16"
       id="path943"
       sodipodi:nodetypes="caaaaaaaaaaaaaaac" /></g></svg>
